<?xml version="1.0" encoding="UTF-8" standalone="no"?><!DOCTYPE svg PUBLIC "-//W3C//DTD SVG 1.1//EN" "http://www.w3.org/Graphics/SVG/1.1/DTD/svg11.dtd"><svg width="100%" height="100%" viewBox="0 0 2550 2428" version="1.1" xmlns="http://www.w3.org/2000/svg" xmlns:xlink="http://www.w3.org/1999/xlink" xml:space="preserve" xmlns:serif="http://www.serif.com/" style="fill-rule:evenodd;clip-rule:evenodd;stroke-linecap:round;stroke-linejoin:round;stroke-miterlimit:1.5;"><g transform="matrix(1.06041,-2.27825e-17,1.68484e-17,0.911613,-85.5108,712.376)"><path d="M2470.77,1282.88C2470.77,1604.07 2246.6,1864.83 1970.48,1864.83L595.306,1864.83C319.186,1864.83 95.012,1604.07 95.012,1282.88C95.012,961.69 319.186,700.925 595.306,700.925L1970.48,700.925C2246.6,700.925 2470.77,961.69 2470.77,1282.88Z" style="fill:#fefefe;"/><path d="M2470.77,1282.88C2470.77,1604.07 2246.6,1864.83 1970.48,1864.83L595.306,1864.83C319.186,1864.83 95.012,1604.07 95.012,1282.88C95.012,961.69 319.186,700.925 595.306,700.925L1970.48,700.925C2246.6,700.925 2470.77,961.69 2470.77,1282.88Z" style="fill:none;stroke:#000;stroke-width:30.83px;"/></g><g transform="matrix(1.06041,-2.20295e-17,1.68484e-17,0.881482,-85.5108,742.727)"><g><path d="M2470.77,1282.88C2470.77,1604.07 2254.01,1864.83 1987.02,1864.83L578.77,1864.83C311.777,1864.83 95.012,1604.07 95.012,1282.88C95.012,961.69 311.777,700.925 578.77,700.925L1987.02,700.925C2254.01,700.925 2470.77,961.69 2470.77,1282.88Z" style="fill:none;stroke:#000;stroke-width:31.26px;"/></g></g><g transform="matrix(1.06041,-2.23167e-17,1.68484e-17,0.892974,-85.5108,713.258)"><g><path d="M2470.77,1282.88C2470.77,1604.07 2251.18,1864.83 1980.71,1864.83L585.076,1864.83C314.602,1864.83 95.012,1604.07 95.012,1282.88C95.012,961.69 314.602,700.925 585.076,700.925L1980.71,700.925C2251.18,700.925 2470.77,961.69 2470.77,1282.88ZM2427.76,1282.88C2427.76,989.882 2227.44,752.006 1980.71,752.006L585.076,752.006C338.343,752.006 138.027,989.882 138.027,1282.88C138.027,1575.88 338.343,1813.75 585.076,1813.75L1980.71,1813.75C2227.44,1813.75 2427.76,1575.88 2427.76,1282.88Z" style="fill-opacity:0.44;"/></g></g><g transform="matrix(1.06041,-2.12612e-17,1.68484e-17,0.850737,-85.5108,749.409)"><g><path d="M2470.77,1282.88C2470.77,1604.07 2261.57,1864.83 2003.89,1864.83L561.897,1864.83C304.216,1864.83 95.012,1604.07 95.012,1282.88C95.012,961.69 304.216,700.925 561.897,700.925L2003.89,700.925C2261.57,700.925 2470.77,961.69 2470.77,1282.88ZM2427.76,1282.88C2427.76,991.282 2237.83,754.542 2003.89,754.542L561.897,754.542C327.957,754.542 138.027,991.282 138.027,1282.88C138.027,1574.48 327.957,1811.22 561.897,1811.22L2003.89,1811.22C2237.83,1811.22 2427.76,1574.48 2427.76,1282.88Z" style="fill-opacity:0.15;"/></g></g><g transform="matrix(1,0,0,1,21.7677,72.336)"><g transform="matrix(1.07065,0,0,1.07065,-312.118,-126.628)"><circle cx="752.54" cy="1778.84" r="382.865" style="fill:#c7c7c7;stroke:#000;stroke-width:28.47px;"/></g><g transform="matrix(1,0,0,1,-212.576,-22)"><path d="M1027.2,1770.51L1027.2,1837.1C1027.2,1855.47 1012.29,1870.39 993.911,1870.39L835.772,1870.39C817.397,1870.39 802.479,1855.47 802.479,1837.1L802.479,1770.51C802.479,1752.14 817.397,1737.22 835.772,1737.22L993.911,1737.22C1012.29,1737.22 1027.2,1752.14 1027.2,1770.51Z" style="fill:#2f3e5f;stroke:#000;stroke-width:30.48px;"/></g><g transform="matrix(0.856835,0,0,0.135577,-80.5303,1488.27)"><path d="M1027.2,1803.81C1027.2,1840.56 1022.48,1870.39 1016.67,1870.39L813.015,1870.39C807.2,1870.39 802.479,1840.56 802.479,1803.81C802.479,1767.06 807.2,1737.22 813.015,1737.22L1016.67,1737.22C1022.48,1737.22 1027.2,1767.06 1027.2,1803.81Z" style="fill:#a5a7c0;"/></g><g transform="matrix(0.856835,0,0,0.135577,-80.403,1589.51)"><path d="M1027.2,1803.81C1027.2,1840.56 1022.48,1870.39 1016.67,1870.39L813.015,1870.39C807.2,1870.39 802.479,1840.56 802.479,1803.81C802.479,1767.06 807.2,1737.22 813.015,1737.22L1016.67,1737.22C1022.48,1737.22 1027.2,1767.06 1027.2,1803.81Z" style="fill:#2c2c2c;"/></g><g transform="matrix(1,0,0,1,-629.218,-20.1615)"><path d="M1027.2,1770.51L1027.2,1837.1C1027.2,1855.47 1012.29,1870.39 993.911,1870.39L835.772,1870.39C817.397,1870.39 802.479,1855.47 802.479,1837.1L802.479,1770.51C802.479,1752.14 817.397,1737.22 835.772,1737.22L993.911,1737.22C1012.29,1737.22 1027.2,1752.14 1027.2,1770.51Z" style="fill:#2f3e5f;stroke:#000;stroke-width:30.48px;"/></g><g transform="matrix(0.856835,0,0,0.135577,-498.749,1497.35)"><path d="M1027.2,1803.81C1027.2,1840.56 1022.48,1870.39 1016.67,1870.39L813.015,1870.39C807.2,1870.39 802.479,1840.56 802.479,1803.81C802.479,1767.06 807.2,1737.22 813.015,1737.22L1016.67,1737.22C1022.48,1737.22 1027.2,1767.06 1027.2,1803.81Z" style="fill:#a5a7c0;"/></g><g transform="matrix(0.856835,0,0,0.135577,-500.017,1589.51)"><path d="M1027.2,1803.81C1027.2,1840.56 1022.48,1870.39 1016.67,1870.39L813.015,1870.39C807.2,1870.39 802.479,1840.56 802.479,1803.81C802.479,1767.06 807.2,1737.22 813.015,1737.22L1016.67,1737.22C1022.48,1737.22 1027.2,1767.06 1027.2,1803.81Z" style="fill:#2c2c2c;"/></g><g transform="matrix(-0.000623721,-1,1,-0.000623721,-1305.37,2911.69)"><path d="M1027.2,1770.51L1027.2,1837.1C1027.2,1855.47 1012.29,1870.39 993.911,1870.39L835.772,1870.39C817.397,1870.39 802.479,1855.47 802.479,1837.1L802.479,1770.51C802.479,1752.14 817.397,1737.22 835.772,1737.22L993.911,1737.22C1012.29,1737.22 1027.2,1752.14 1027.2,1770.51Z" style="fill:#2f3e5f;stroke:#000;stroke-width:30.48px;"/></g><g transform="matrix(0.452153,0,0,0.135577,83.9535,1660.39)"><path d="M1027.2,1803.81C1027.2,1840.56 1018.26,1870.39 1007.24,1870.39L822.444,1870.39C811.425,1870.39 802.479,1840.56 802.479,1803.81C802.479,1767.06 811.425,1737.22 822.444,1737.22L1007.24,1737.22C1018.26,1737.22 1027.2,1767.06 1027.2,1803.81Z" style="fill:#a5a7c0;"/></g><g transform="matrix(0.452153,0,0,0.135577,83.9535,1845.41)"><path d="M1027.2,1803.81C1027.2,1840.56 1018.26,1870.39 1007.24,1870.39L822.444,1870.39C811.425,1870.39 802.479,1840.56 802.479,1803.81C802.479,1767.06 811.425,1737.22 822.444,1737.22L1007.24,1737.22C1018.26,1737.22 1027.2,1767.06 1027.2,1803.81Z" style="fill:#2c2c2c;"/></g><g transform="matrix(-0.000623721,-1,1,-0.000623721,-1309.53,2491.53)"><path d="M1027.2,1770.51L1027.2,1837.1C1027.2,1855.47 1012.29,1870.39 993.911,1870.39L835.772,1870.39C817.397,1870.39 802.479,1855.47 802.479,1837.1L802.479,1770.51C802.479,1752.14 817.397,1737.22 835.772,1737.22L993.911,1737.22C1012.29,1737.22 1027.2,1752.14 1027.2,1770.51Z" style="fill:#2f3e5f;stroke:#000;stroke-width:30.48px;"/></g><g transform="matrix(0.452153,0,0,0.135577,78.4988,1234.11)"><path d="M1027.2,1803.81C1027.2,1840.56 1018.26,1870.39 1007.24,1870.39L822.444,1870.39C811.425,1870.39 802.479,1840.56 802.479,1803.81C802.479,1767.06 811.425,1737.22 822.444,1737.22L1007.24,1737.22C1018.26,1737.22 1027.2,1767.06 1027.2,1803.81Z" style="fill:#a5a7c0;"/></g><g transform="matrix(0.452153,0,0,0.135577,78.4988,1429.22)"><path d="M1027.2,1803.81C1027.2,1840.56 1018.26,1870.39 1007.24,1870.39L822.444,1870.39C811.425,1870.39 802.479,1840.56 802.479,1803.81C802.479,1767.06 811.425,1737.22 822.444,1737.22L1007.24,1737.22C1018.26,1737.22 1027.2,1767.06 1027.2,1803.81Z" style="fill:#2c2c2c;"/></g></g><g transform="matrix(0.4751,-0.457353,0.722029,0.750046,-664.422,481.272)"><path d="M2086.26,2770.3C2086.26,2880.47 1945.05,2969.91 1771.13,2969.91L1106.3,2969.91C932.381,2969.91 791.178,2880.47 791.178,2770.3C791.178,2660.13 932.381,2570.69 1106.3,2570.69L1771.13,2570.69C1945.05,2570.69 2086.26,2660.13 2086.26,2770.3Z" style="fill:#c7c7c7;stroke:#000;stroke-width:34.9px;"/></g><g transform="matrix(1,0,0,1,-0.232334,-16.664)"><g transform="matrix(1.6733,0,0,1.6733,-1457.36,-1081.98)"><circle cx="2172.68" cy="1700.81" r="92.595" style="fill:#fd6c5b;stroke:#000;stroke-width:18.22px;"/></g><g transform="matrix(0.94983,-0.312767,0.312767,0.94983,84.5498,536.501)"><path d="M1490.05,1737.05C1496.42,1725.23 1504.58,1715.99 1506.86,1712.75C1509.44,1709.1 1517.69,1701.36 1529.95,1692.55C1555.07,1674.5 1574.87,1670.41 1607.89,1672.39C1631.93,1673.83 1642.49,1678.9 1654.12,1683.67C1665.1,1688.18 1673.38,1691.5 1688.27,1703.87C1699.42,1713.14 1714.48,1736.53 1703.45,1725.91C1679.57,1702.92 1642.05,1685.4 1606.05,1685.4C1570.73,1685.4 1550.6,1690.01 1529.56,1707.83C1517.94,1717.67 1498.63,1741.4 1493.21,1750.19C1489,1757.03 1480.38,1770.29 1474.2,1776.04C1469.65,1780.28 1486.83,1743.03 1490.05,1737.05Z" style="fill:#ffe1d6;"/></g><g transform="matrix(-0.945385,0.325956,-0.325956,-0.945385,4285.99,2958.43)"><path d="M1481.16,1744.2C1487.53,1732.37 1504.58,1715.99 1506.86,1712.75C1509.44,1709.1 1517.69,1701.36 1529.95,1692.55C1555.07,1674.5 1574.87,1670.41 1607.89,1672.39C1631.93,1673.83 1642.49,1678.9 1654.12,1683.67C1665.1,1688.18 1673.38,1691.5 1688.27,1703.87C1699.42,1713.14 1714.48,1736.53 1703.45,1725.91C1679.57,1702.92 1642.05,1685.4 1606.05,1685.4C1584.48,1685.4 1569.25,1687.35 1555.34,1692.75C1546.48,1696.19 1537.75,1700.89 1529.56,1707.83C1517.94,1717.67 1500.53,1732.6 1495.11,1741.39C1490.9,1748.23 1477.39,1764.72 1471.21,1770.47C1466.65,1774.71 1477.94,1750.17 1481.16,1744.2Z" style="fill:#d06b73;"/></g><g transform="matrix(1,0,0,1,0,29.8302)"><g transform="matrix(250,0,0,250,2091.32,1808.73)"><path d="M0.718,-0L0.561,-0L0.499,-0.163L0.212,-0.163L0.153,-0L0,-0L0.279,-0.716L0.432,-0.716L0.718,-0ZM0.452,-0.283L0.354,-0.549L0.257,-0.283L0.452,-0.283Z" style="fill-rule:nonzero;"/></g></g></g><g transform="matrix(1,0,0,1,-0.232334,-16.664)"><g transform="matrix(1.57365,0,0,1.57365,-1157.1,-979.394)"><circle cx="1919.86" cy="1939.06" r="97.797" style="fill:#00ae75;stroke:#000;stroke-width:19.37px;"/></g><g transform="matrix(0.94983,-0.312767,0.312767,0.94983,-228.729,845.052)"><path d="M1490.05,1737.05C1496.42,1725.23 1504.58,1715.99 1506.86,1712.75C1509.44,1709.1 1517.69,1701.36 1529.95,1692.55C1555.07,1674.5 1574.87,1670.41 1607.89,1672.39C1631.93,1673.83 1642.49,1678.9 1654.12,1683.67C1665.1,1688.18 1673.38,1691.5 1688.27,1703.87C1699.42,1713.14 1714.48,1736.53 1703.45,1725.91C1679.57,1702.92 1642.05,1685.4 1606.05,1685.4C1570.73,1685.4 1550.6,1690.01 1529.56,1707.83C1517.94,1717.67 1498.63,1741.4 1493.21,1750.19C1489,1757.03 1480.38,1770.29 1474.2,1776.04C1469.65,1780.28 1486.83,1743.03 1490.05,1737.05Z" style="fill:#44ead2;"/></g><g transform="matrix(-0.945385,0.325956,-0.325956,-0.945385,3972.98,3266.16)"><path d="M1490.05,1737.05C1496.42,1725.23 1504.58,1715.99 1506.86,1712.75C1509.44,1709.1 1517.69,1701.36 1529.95,1692.55C1555.07,1674.5 1574.87,1670.41 1607.89,1672.39C1631.93,1673.83 1642.49,1678.9 1654.12,1683.67C1665.1,1688.18 1673.38,1691.5 1688.27,1703.87C1699.42,1713.14 1714.48,1736.53 1703.45,1725.91C1679.57,1702.92 1642.05,1685.4 1606.05,1685.4C1570.73,1685.4 1550.6,1690.01 1529.56,1707.83C1517.94,1717.67 1498.63,1741.4 1493.21,1750.19C1489,1757.03 1480.38,1770.29 1474.2,1776.04C1469.65,1780.28 1486.83,1743.03 1490.05,1737.05Z" style="fill:#297b87;"/></g><g id="B" transform="matrix(1,0,0,1,-311.086,349.439)"><g transform="matrix(250,0,0,250,2091.32,1808.73)"><path d="M0.073,-0.716L0.359,-0.716C0.416,-0.716 0.458,-0.713 0.486,-0.708C0.514,-0.704 0.539,-0.694 0.561,-0.679C0.583,-0.664 0.601,-0.644 0.616,-0.619C0.63,-0.594 0.638,-0.567 0.638,-0.536C0.638,-0.502 0.629,-0.471 0.61,-0.443C0.592,-0.415 0.568,-0.394 0.537,-0.38C0.581,-0.368 0.614,-0.346 0.638,-0.315C0.661,-0.285 0.673,-0.249 0.673,-0.208C0.673,-0.175 0.665,-0.143 0.65,-0.112C0.635,-0.082 0.614,-0.057 0.588,-0.039C0.562,-0.02 0.53,-0.009 0.491,-0.005C0.467,-0.002 0.409,-0.001 0.317,-0L0.073,-0L0.073,-0.716ZM0.218,-0.597L0.218,-0.431L0.313,-0.431C0.369,-0.431 0.404,-0.432 0.417,-0.434C0.442,-0.437 0.462,-0.445 0.476,-0.459C0.49,-0.473 0.497,-0.492 0.497,-0.515C0.497,-0.537 0.491,-0.555 0.479,-0.569C0.466,-0.583 0.448,-0.591 0.424,-0.594C0.41,-0.596 0.369,-0.597 0.301,-0.597L0.218,-0.597ZM0.218,-0.312L0.218,-0.121L0.352,-0.121C0.404,-0.121 0.437,-0.122 0.451,-0.125C0.472,-0.129 0.49,-0.138 0.503,-0.153C0.517,-0.169 0.523,-0.189 0.523,-0.214C0.523,-0.236 0.518,-0.254 0.508,-0.269C0.497,-0.284 0.482,-0.295 0.462,-0.302C0.443,-0.309 0.4,-0.312 0.334,-0.312L0.218,-0.312Z" style="fill-rule:nonzero;"/></g></g></g><g transform="matrix(1.44773,0,0,1,-929.586,-73.664)"><g><path d="M2153.38,1530.7L885.597,1530.7" style="fill:none;stroke:#a5a7c0;stroke-opacity:0.67;stroke-width:100.12px;"/></g></g><g transform="matrix(1.08985,0,0,1.26051,-132.843,-219.571)"><path d="M2178.46,241.628L2178.46,1299.51C2178.46,1330.05 2149.78,1354.85 2114.45,1354.85L457.987,1354.85C422.658,1354.85 393.975,1330.05 393.975,1299.51L393.975,241.628C393.975,211.082 422.658,186.283 457.987,186.283L2114.45,186.283C2149.78,186.283 2178.46,211.082 2178.46,241.628Z" style="fill:#fefefe;stroke:#000;stroke-width:25.87px;"/></g><g transform="matrix(1.00492,0,0,1.151,-26.1078,-140.127)"><path d="M2178.46,192.176L2178.46,1348.96C2178.46,1352.21 2175.43,1354.85 2171.71,1354.85L400.725,1354.85C396.999,1354.85 393.975,1352.21 393.975,1348.96L393.975,192.176C393.975,188.923 396.999,186.283 400.725,186.283L2171.71,186.283C2175.43,186.283 2178.46,188.923 2178.46,192.176Z" style="fill:#6f8b96;stroke:#000;stroke-width:28.21px;"/></g><g transform="matrix(1,0,0,1,-19.2323,-16.664)"><g transform="matrix(1,0,0,1,488.518,-1090.17)"><path d="M561.266,2756.45L736.051,2756.45" style="fill:none;stroke:#000;stroke-width:83.75px;"/></g><g transform="matrix(0.859941,0,0,0.135577,352.938,1412.29)"><path d="M1027.2,1803.81C1027.2,1840.56 1022.5,1870.39 1016.71,1870.39L812.977,1870.39C807.183,1870.39 802.479,1840.56 802.479,1803.81C802.479,1767.06 807.183,1737.22 812.977,1737.22L1016.71,1737.22C1022.5,1737.22 1027.2,1767.06 1027.2,1803.81Z" style="fill:#8a8db1;"/></g></g><g transform="matrix(1,0,0,1,329.768,-16.664)"><g transform="matrix(1,0,0,1,496.518,-1090.17)"><path d="M561.266,2756.45L736.051,2756.45" style="fill:none;stroke:#000;stroke-width:83.75px;"/></g><g transform="matrix(0.859941,0,0,0.135577,359.938,1412.29)"><path d="M1027.2,1803.81C1027.2,1840.56 1022.5,1870.39 1016.71,1870.39L812.977,1870.39C807.183,1870.39 802.479,1840.56 802.479,1803.81C802.479,1767.06 807.183,1737.22 812.977,1737.22L1016.71,1737.22C1022.5,1737.22 1027.2,1767.06 1027.2,1803.81Z" style="fill:#8a8db1;"/></g></g></svg>