<?xml version="1.0" encoding="UTF-8" standalone="no"?><!DOCTYPE svg PUBLIC "-//W3C//DTD SVG 1.1//EN" "http://www.w3.org/Graphics/SVG/1.1/DTD/svg11.dtd"><svg width="100%" height="100%" viewBox="0 0 2494 1994" version="1.1" xmlns="http://www.w3.org/2000/svg" xmlns:xlink="http://www.w3.org/1999/xlink" xml:space="preserve" xmlns:serif="http://www.serif.com/" style="fill-rule:evenodd;clip-rule:evenodd;stroke-linejoin:round;stroke-miterlimit:2;"><g transform="matrix(1.01356,0,0,1.00368,-48.176,-50.358)"><path d="M1802.24,55.463C1802.65,55.044 1803.1,54.459 1803.56,54.064C1804.07,53.632 1804.56,53.089 1805.15,52.709C1805.72,52.343 1806.42,51.771 1807.04,51.502C1807.7,51.218 1808.53,50.951 1809.27,50.767C1810.1,50.56 1811.14,50.337 1812.06,50.259C1812.94,50.184 1814.75,50.184 1814.75,50.184L2432.92,50.184C2474.24,50.184 2507.78,84.058 2507.78,125.782L2507.78,1960.63C2507.78,2002.35 2474.24,2036.23 2432.92,2036.23L122.392,2036.23C81.076,2036.23 47.531,2002.35 47.531,1960.63L47.531,125.782C47.531,84.058 81.076,50.184 122.392,50.184L797.312,50.184C798.403,50.184 798.753,50.154 799.471,50.194C799.814,50.213 800.319,50.248 800.885,50.308C802.035,50.431 802.743,50.61 803.365,50.783C803.866,50.923 804.495,51.249 804.861,51.454C805.97,52.076 806.59,52.67 807.083,53.235C807.576,53.8 807.712,53.869 808.797,55.485C809.486,56.512 809.841,57.542 810.188,59.11C810.383,59.995 810.383,60.82 810.398,61.538C810.429,63.147 810.434,64.291 810.434,65.081L810.434,82.965C810.434,92.509 818.107,100.257 827.558,100.257L1781.72,100.257C1791.17,100.257 1798.84,92.509 1798.84,82.965L1798.84,69.018C1798.84,69.018 1798.89,65.969 1798.91,64.919C1798.91,64.271 1799.07,63.566 1799.11,62.944C1799.16,62.345 1799.32,61.94 1799.38,61.346C1799.45,60.742 1799.69,60.134 1799.87,59.587C1800.04,59.057 1800.19,58.746 1800.45,58.256C1800.72,57.76 1800.9,57.249 1801.25,56.799C1801.59,56.352 1801.85,55.865 1802.24,55.463Z" style="fill:rgb(235,232,223);"/><clipPath id="_clip1"><path d="M1802.24,55.463C1802.65,55.044 1803.1,54.459 1803.56,54.064C1804.07,53.632 1804.56,53.089 1805.15,52.709C1805.72,52.343 1806.42,51.771 1807.04,51.502C1807.7,51.218 1808.53,50.951 1809.27,50.767C1810.1,50.56 1811.14,50.337 1812.06,50.259C1812.94,50.184 1814.75,50.184 1814.75,50.184L2432.92,50.184C2474.24,50.184 2507.78,84.058 2507.78,125.782L2507.78,1960.63C2507.78,2002.35 2474.24,2036.23 2432.92,2036.23L122.392,2036.23C81.076,2036.23 47.531,2002.35 47.531,1960.63L47.531,125.782C47.531,84.058 81.076,50.184 122.392,50.184L797.312,50.184C798.403,50.184 798.753,50.154 799.471,50.194C799.814,50.213 800.319,50.248 800.885,50.308C802.035,50.431 802.743,50.61 803.365,50.783C803.866,50.923 804.495,51.249 804.861,51.454C805.97,52.076 806.59,52.67 807.083,53.235C807.576,53.8 807.712,53.869 808.797,55.485C809.486,56.512 809.841,57.542 810.188,59.11C810.383,59.995 810.383,60.82 810.398,61.538C810.429,63.147 810.434,64.291 810.434,65.081L810.434,82.965C810.434,92.509 818.107,100.257 827.558,100.257L1781.72,100.257C1791.17,100.257 1798.84,92.509 1798.84,82.965L1798.84,69.018C1798.84,69.018 1798.89,65.969 1798.91,64.919C1798.91,64.271 1799.07,63.566 1799.11,62.944C1799.16,62.345 1799.32,61.94 1799.38,61.346C1799.45,60.742 1799.69,60.134 1799.87,59.587C1800.04,59.057 1800.19,58.746 1800.45,58.256C1800.72,57.76 1800.9,57.249 1801.25,56.799C1801.59,56.352 1801.85,55.865 1802.24,55.463Z"/></clipPath><g clip-path="url(#_clip1)"><g transform="matrix(1.00084,0,0,1.00818,8.17089,-8.5085)"><path d="M2468.34,121.854L2468.34,1965.83C2468.34,1984.5 2453.18,1999.65 2434.52,1999.65L108.462,1999.65C89.798,1999.65 74.645,1984.5 74.645,1965.83L74.645,121.854C74.645,103.191 89.798,88.038 108.462,88.038L2434.52,88.038C2453.18,88.038 2468.34,103.191 2468.34,121.854Z" style="fill:rgb(97,121,133);"/></g><g transform="matrix(-0.662134,0.558928,-0.546061,-0.718815,4202.35,-1199.67)"><path d="M2475.65,138.011C2492.5,151.003 2495.9,148.386 2501.51,142.78C2501.89,142.403 2503.53,114.088 2502.39,111.812C2497.03,101.09 2498.45,87.592 2493.04,98.095C2491.94,100.229 2485.8,111.081 2484.27,114.195C2479.07,124.755 2475.65,125.447 2475.65,138.011Z" style="fill:rgb(24,43,60);fill-opacity:0.42;"/></g><g transform="matrix(5.24739,2.5595e-15,0,2.34291,-1806.55,1731.69)"><path d="M814.417,121.626C813.56,123.2 813.614,126.271 812.624,126.271L366.731,126.271C365.741,126.271 364.938,124.189 364.938,121.626C364.938,120.511 363.531,117.106 363.783,116.305C364.112,115.263 366.171,116.98 366.731,116.98L810.975,116.98L812.019,116.909C812.217,117.131 816.448,105.591 816.675,104.946C818.61,99.469 819.845,102.311 819.681,109.174C819.65,110.456 816.092,118.547 814.417,121.626Z" style="fill:rgb(24,43,60);fill-opacity:0.75;"/></g><g transform="matrix(0.986621,0,0,3.40348,15.6174,-247.009)"><path d="M2514,108.777L2515.02,652.357C2513.08,654.13 2513.02,652.783 2506.39,652.54L2495.58,654.289C2495.3,655.078 2495.18,651.647 2494.58,650.229L2493.39,103.923C2493.39,103.779 2500.53,106.332 2501,106.332L2506.99,107.546C2515.81,109.002 2514,108.633 2514,108.777Z" style="fill:rgb(24,43,60);fill-opacity:0.69;"/></g><g transform="matrix(0.274822,-0.243611,0.241237,0.277526,720.335,1948.3)"><path d="M2161.12,2082.47L2180.57,2098.29C2176.94,2102.76 2174.95,2108.35 2174.95,2114.11C2174.95,2119.88 2176.94,2125.46 2180.57,2129.93L2161.12,2145.76C2153.85,2136.81 2149.88,2125.64 2149.88,2114.11C2149.88,2102.59 2153.85,2091.41 2161.12,2082.47Z" style="fill:rgb(76,90,101);"/></g><g transform="matrix(-0.301808,-0.304778,0.301808,-0.304778,800.135,3312.05)"><path d="M2161.12,2082.47L2180.57,2098.29C2176.94,2102.76 2174.95,2108.35 2174.95,2114.11C2174.95,2119.88 2176.94,2125.46 2180.57,2129.93L2161.12,2145.76C2153.85,2136.81 2149.88,2125.64 2149.88,2114.11C2149.88,2102.59 2153.85,2091.41 2161.12,2082.47Z" style="fill:rgb(76,90,101);"/></g><g transform="matrix(6.04131e-17,0.996329,-0.986621,6.10076e-17,960.405,-945.375)"><path d="M1035.91,171.721L1035.91,178.151C1032.36,178.151 1029.48,181.03 1029.48,184.581L1023.05,184.581C1023.05,177.479 1028.81,171.721 1035.91,171.721Z" style="fill:rgb(229,229,219);"/></g><g transform="matrix(-0.986621,1.22015e-16,-1.20826e-16,-0.996329,2563.97,1953.57)"><g transform="matrix(1,0,0,1,-317.538,-90.8547)"><g transform="matrix(-1,-1.22465e-16,1.22465e-16,-1,3184.1,2215.25)"><path d="M2101.3,214.152L2105.87,214.152L2105.87,251.26C2105.87,265.475 2094.33,277.015 2080.12,277.015L1102.21,277.015C1087.99,277.015 1076.45,265.475 1076.45,251.26L1076.45,214.152L2086.03,214.152C2086.2,214.497 2086.38,214.846 2086.4,214.867C2086.75,215.214 2087.64,219.571 2088.2,221.06C2088.84,222.765 2089.08,223.649 2089.27,224.359C2088.89,224.442 2088.5,224.531 2088.11,224.629C2087.03,224.9 2087.03,224.879 2086.94,224.922C2087.03,224.879 2087.03,224.9 2088.11,224.629C2088.5,224.531 2088.89,224.442 2089.27,224.359C2089.47,225.079 2089.61,225.619 2090.08,226.654C2089.61,225.619 2089.47,225.079 2089.27,224.359C2095.69,222.97 2100.26,223.502 2101.3,214.152Z"/></g><g transform="matrix(1.09752,0,0,2.02469,231.716,-1799.22)"><path d="M759.213,1870.77L759.213,1859.85C759.213,1848.46 776.279,1839.2 797.299,1839.2L1683.39,1839.2C1704.41,1839.2 1721.48,1848.46 1721.48,1859.85L1721.48,1870.77L1709.33,1870.77L1709.33,1859.85C1709.33,1852.09 1697.71,1845.79 1683.39,1845.79L797.299,1845.79C782.984,1845.79 771.361,1852.09 771.361,1859.85L771.361,1870.77L759.213,1870.77Z" style="fill:rgb(229,229,219);"/></g><g transform="matrix(-6.48615e-17,0.35309,-0.35309,-6.48615e-17,2172.6,1638.18)"><path d="M958.454,204.444L958.454,184.275C977.833,184.275 993.543,168.315 993.543,148.629L1013.4,148.629C1013.4,179.455 988.798,204.444 958.454,204.444Z"/></g><g transform="matrix(0.35309,0,0,0.35309,727.41,1923.67)"><path d="M958.454,204.444L958.454,184.275C977.833,184.275 993.543,168.315 993.543,148.629L1013.4,148.629C1013.4,179.455 988.798,204.444 958.454,204.444Z"/></g></g><g transform="matrix(1,0,0,1.17778,0.407539,-330.174)"><g><rect x="800.616" y="1848.58" width="945.288" height="17.17" style="fill-opacity:0.33;"/></g></g></g><g transform="matrix(0.446136,-0.814145,1.0593,0.591959,-1147.33,3959.5)"><path d="M2475.65,138.011C2492.5,151.003 2493.84,132.196 2499.45,126.59C2499.83,126.213 2503.53,114.088 2502.39,111.812C2497.03,101.09 2494.77,87.651 2489.36,98.153C2488.26,100.287 2482.06,106.969 2480.53,110.083C2475.34,120.643 2475.65,125.447 2475.65,138.011Z" style="fill:rgb(24,43,60);fill-opacity:0.42;"/></g><g transform="matrix(0.986621,0,0,0.996329,810.871,-97.1731)"><path d="M1035.91,171.721L1035.91,178.151C1032.36,178.151 1029.48,181.03 1029.48,184.581L1023.05,184.581C1023.05,177.479 1028.81,171.721 1035.91,171.721Z" style="fill:rgb(229,229,219);"/></g><g transform="matrix(0.986621,0,0,0.996329,47.1294,133.036)"><g transform="matrix(1,0,0,1,-317.538,-90.8547)"><g transform="matrix(1.03689,0,0,1,251.915,91.4971)"><path d="M796.91,1909.6L796.91,1872.49C796.91,1858.28 808.039,1846.74 821.748,1846.74L1764.86,1846.74C1778.57,1846.74 1789.7,1858.28 1789.7,1872.49L1789.7,1909.6L796.91,1909.6Z"/></g><g transform="matrix(1.01371,0,0,0.663158,305.55,793.811)"><path d="M837.775,1710.58L837.775,1788.98C822.805,1774.42 812.438,1749.76 810.786,1721.31L810.786,1710.66C811.466,1710.61 812.15,1710.58 812.84,1710.58L837.775,1710.58ZM928.378,1710.58L928.378,1767.27L928.357,1767.27L928.357,1802.23L918.283,1802.23L918.283,1796.52C918.283,1788.46 914.003,1781.92 908.73,1781.92L862.151,1781.92C856.878,1781.92 852.597,1788.46 852.597,1796.52L852.597,1797.85C849.08,1796.15 845.704,1793.98 842.503,1791.38L842.503,1710.58L928.378,1710.58ZM950.621,1710.58L950.621,1802.16L932.865,1802.16L932.865,1710.58L950.621,1710.58ZM973.169,1710.58L973.169,1802.16L955.413,1802.16L955.413,1710.58L973.169,1710.58ZM996.394,1710.58L996.394,1802.16L978.637,1802.16L978.637,1710.58L996.394,1710.58ZM1019.77,1710.58L1019.77,1802.16L1002.02,1802.16L1002.02,1710.58L1019.77,1710.58ZM1110.19,1710.58L1110.19,1802.2L1100.1,1802.2L1100.1,1796.52C1100.1,1788.46 1095.82,1781.92 1090.55,1781.92L1043.97,1781.92C1038.69,1781.92 1034.41,1788.46 1034.41,1796.52L1034.41,1802.2L1024.32,1802.2L1024.32,1710.58L1110.19,1710.58ZM1131.84,1710.58L1131.84,1802.16L1114.08,1802.16L1114.08,1710.58L1131.84,1710.58ZM1154.85,1710.58L1154.85,1802.16L1137.09,1802.16L1137.09,1710.58L1154.85,1710.58ZM1177.8,1710.58L1177.8,1802.16L1160.05,1802.16L1160.05,1710.58L1177.8,1710.58ZM1200.76,1710.58L1200.76,1802.16L1183.01,1802.16L1183.01,1710.58L1200.76,1710.58ZM1223.72,1710.58L1223.72,1802.16L1205.96,1802.16L1205.96,1710.58L1223.72,1710.58ZM1314.61,1710.58L1314.61,1802.2L1304.51,1802.2L1304.51,1796.52C1304.51,1788.46 1300.23,1781.92 1294.96,1781.92L1248.38,1781.92C1243.11,1781.92 1238.83,1788.46 1238.83,1796.52L1238.83,1802.2L1228.73,1802.2L1228.73,1710.58L1314.61,1710.58ZM1336.63,1710.58L1336.63,1802.16L1318.87,1802.16L1318.87,1710.58L1336.63,1710.58ZM1359.64,1710.58L1359.64,1802.16L1341.88,1802.16L1341.88,1710.58L1359.64,1710.58ZM1382.6,1710.58L1382.6,1802.16L1364.84,1802.16L1364.84,1710.58L1382.6,1710.58ZM1405.56,1710.58L1405.56,1802.16L1387.8,1802.16L1387.8,1710.58L1405.56,1710.58ZM1428.52,1710.58L1428.52,1802.16L1410.76,1802.16L1410.76,1710.58L1428.52,1710.58ZM1519.5,1710.58L1519.5,1802.2L1509.4,1802.2L1509.4,1796.52C1509.4,1788.46 1505.12,1781.92 1499.85,1781.92L1453.27,1781.92C1448,1781.92 1443.72,1788.46 1443.72,1796.52L1443.72,1802.2L1433.62,1802.2L1433.62,1710.58L1519.5,1710.58ZM1541.72,1710.58L1541.72,1802.16L1523.96,1802.16L1523.96,1710.58L1541.72,1710.58ZM1564.27,1710.58L1564.27,1802.16L1546.51,1802.16L1546.51,1710.58L1564.27,1710.58ZM1587.49,1710.58L1587.49,1802.16L1569.74,1802.16L1569.74,1710.58L1587.49,1710.58ZM1610.87,1710.58L1610.87,1802.16L1593.12,1802.16L1593.12,1710.58L1610.87,1710.58ZM1700.77,1710.58L1700.77,1791.23C1697.57,1793.82 1694.19,1796 1690.68,1797.69L1690.68,1796.52C1690.68,1788.46 1686.39,1781.92 1681.12,1781.92L1634.54,1781.92C1629.27,1781.92 1624.99,1788.46 1624.99,1796.52L1624.99,1802.07L1614.92,1802.07L1614.92,1767.14L1614.9,1767.14L1614.9,1710.58L1700.77,1710.58ZM1732.34,1711.12L1732.34,1720.86C1730.69,1749.11 1720.32,1773.58 1705.35,1788.03L1705.35,1710.58L1727.19,1710.58C1728.94,1710.58 1730.65,1710.76 1732.34,1711.12Z" style="fill:rgb(255,212,58);"/></g><g transform="matrix(1.09752,0,0,2.02469,231.716,-1799.22)"><path d="M759.213,1870.77L759.213,1859.85C759.213,1848.46 776.279,1839.2 797.299,1839.2L1683.39,1839.2C1704.41,1839.2 1721.48,1848.46 1721.48,1859.85L1721.48,1870.77L1709.33,1870.77L1709.33,1859.85C1709.33,1852.09 1697.71,1845.79 1683.39,1845.79L797.299,1845.79C782.984,1845.79 771.361,1852.09 771.361,1859.85L771.361,1870.77L759.213,1870.77Z" style="fill:rgb(76,90,101);"/></g></g><g transform="matrix(1,0,0,1.17778,0.407539,-330.174)"><g><rect x="800.616" y="1848.58" width="945.288" height="17.17" style="fill-opacity:0.33;"/></g></g></g></g><path d="M1802.24,55.463C1802.65,55.044 1803.1,54.459 1803.56,54.064C1804.07,53.632 1804.56,53.089 1805.15,52.709C1805.72,52.343 1806.42,51.771 1807.04,51.502C1807.7,51.218 1808.53,50.951 1809.27,50.767C1810.1,50.56 1811.14,50.337 1812.06,50.259C1812.94,50.184 1814.75,50.184 1814.75,50.184L2432.92,50.184C2474.24,50.184 2507.78,84.058 2507.78,125.782L2507.78,1960.63C2507.78,2002.35 2474.24,2036.23 2432.92,2036.23L122.392,2036.23C81.076,2036.23 47.531,2002.35 47.531,1960.63L47.531,125.782C47.531,84.058 81.076,50.184 122.392,50.184L797.312,50.184C798.403,50.184 798.753,50.154 799.471,50.194C799.814,50.213 800.319,50.248 800.885,50.308C802.035,50.431 802.743,50.61 803.365,50.783C803.866,50.923 804.495,51.249 804.861,51.454C805.97,52.076 806.59,52.67 807.083,53.235C807.576,53.8 807.712,53.869 808.797,55.485C809.486,56.512 809.841,57.542 810.188,59.11C810.383,59.995 810.383,60.82 810.398,61.538C810.429,63.147 810.434,64.291 810.434,65.081L810.434,82.965C810.434,92.509 818.107,100.257 827.558,100.257L1781.72,100.257C1791.17,100.257 1798.84,92.509 1798.84,82.965L1798.84,69.018C1798.84,69.018 1798.89,65.969 1798.91,64.919C1798.91,64.271 1799.07,63.566 1799.11,62.944C1799.16,62.345 1799.32,61.94 1799.38,61.346C1799.45,60.742 1799.69,60.134 1799.87,59.587C1800.04,59.057 1800.19,58.746 1800.45,58.256C1800.72,57.76 1800.9,57.249 1801.25,56.799C1801.59,56.352 1801.85,55.865 1802.24,55.463ZM1811.54,63.607L1811.54,63.605C1811.55,63.584 1811.56,63.563 1811.56,63.541C1811.56,63.563 1811.55,63.585 1811.54,63.607ZM1811.53,63.376C1811.58,63.152 1811.62,62.923 1811.64,62.754L1811.53,63.376ZM1812.36,62.823C1812.24,62.933 1812.09,63.071 1811.94,63.207C1811.85,63.303 1811.74,63.431 1811.62,63.567C1811.56,63.681 1811.5,63.802 1811.44,63.917L1811.37,64.338C1811.33,64.737 1811.27,65.206 1811.23,65.468C1811.22,66.589 1811.18,68.639 1811.18,69.12L1811.18,82.965C1811.18,99.382 1797.98,112.711 1781.72,112.711L827.558,112.711C811.3,112.711 798.101,99.382 798.101,82.965L798.101,65.081C798.101,64.492 798.099,63.691 798.082,62.625C797.882,62.631 797.649,62.638 797.312,62.638L122.392,62.638C87.882,62.638 59.864,90.932 59.864,125.782L59.864,1960.63C59.864,1995.48 87.882,2023.77 122.392,2023.77L2432.92,2023.77C2467.43,2023.77 2495.45,1995.48 2495.45,1960.63L2495.45,125.782C2495.45,90.932 2467.43,62.638 2432.92,62.638L1814.75,62.638C1814.75,62.638 1813.63,62.623 1813.09,62.669C1812.85,62.689 1812.59,62.761 1812.36,62.823Z"/></g><g transform="matrix(1.23852,0,0,1.35763,17.7504,-80.8107)"><path d="M1915.87,195.909L1915.87,1391.41C1915.87,1403.52 1905.1,1413.34 1891.84,1413.34L241.726,1413.34C228.462,1413.34 217.693,1403.52 217.693,1391.41L217.693,195.909C217.693,183.809 228.462,173.985 241.726,173.985L1891.84,173.985C1905.1,173.985 1915.87,183.809 1915.87,195.909Z"/><clipPath id="_clip2"><path d="M1915.87,195.909L1915.87,1391.41C1915.87,1403.52 1905.1,1413.34 1891.84,1413.34L241.726,1413.34C228.462,1413.34 217.693,1403.52 217.693,1391.41L217.693,195.909C217.693,183.809 228.462,173.985 241.726,173.985L1891.84,173.985C1905.1,173.985 1915.87,183.809 1915.87,195.909Z"/></clipPath><g clip-path="url(#_clip2)"><g transform="matrix(0.809417,-8.17764e-17,-4.93025e-16,0.738658,-265.738,-96.9871)"><rect x="613.808" y="384.683" width="2064.86" height="1641.25" style="fill:rgb(2,26,44);"/></g><g transform="matrix(0.808149,-4.97337e-16,-2.76177e-16,0.737006,-271.19,-98.9691)"><path d="M1831.58,880.57L701.567,2010.59L678.917,2033.12L621.601,2033.12L621.601,388.319L2329.87,388.319L2056.9,661.026L2028.75,688.918L1966.71,750.432L1927.42,788.779L1831.58,880.57Z" style="fill:rgb(21,48,69);"/></g><g transform="matrix(-0.00374454,1.63126,-1.78814,-0.00341602,2925.85,-2193.35)"><path d="M1462.47,938.754L2027.59,1503.87L1462.47,1503.87L1462.47,938.754Z" style="fill:rgb(33,61,82);"/></g><g transform="matrix(0.431527,0,0,0.829404,99.7034,57.7595)"><path d="M304.444,138.122L304.444,1623.64C304.444,1628.48 296.173,1632.4 285.985,1632.4C275.798,1632.4 267.527,1628.48 267.527,1623.64L267.527,138.122C267.527,133.287 275.798,129.361 285.985,129.361C296.173,129.361 304.444,133.287 304.444,138.122Z" style="fill:rgb(24,43,60);"/></g><g transform="matrix(3.79154,0,0,1.67883,-1173.12,-24.8255)"><path d="M814.417,121.626C814.417,124.189 813.407,126.271 812.163,126.271L367.192,126.271C365.948,126.271 364.938,124.189 364.938,121.626C364.938,119.062 365.948,116.98 367.192,116.98L812.163,116.98C813.407,116.98 814.417,119.062 814.417,121.626Z" style="fill:rgb(24,43,60);"/></g><g transform="matrix(1.63463,0,0,0.429749,-468.516,723.613)"><path d="M1456.34,1587.12C1456.34,1595.17 1454.45,1601.7 1452.13,1601.7L422.582,1601.7C420.262,1601.7 418.38,1595.17 418.38,1587.12C418.38,1579.08 420.262,1572.54 422.582,1572.54L1452.13,1572.54C1454.45,1572.54 1456.34,1579.08 1456.34,1587.12Z" style="fill:rgb(235,232,223);"/></g><g transform="matrix(0.345403,0,0,0.823326,1810.04,66.5194)"><path d="M304.444,136.425L304.444,1625.34C304.444,1629.24 296.173,1632.4 285.985,1632.4C275.798,1632.4 267.527,1629.24 267.527,1625.34L267.527,136.425C267.527,132.526 275.798,129.361 285.985,129.361C296.173,129.361 304.444,132.526 304.444,136.425Z" style="fill:rgb(235,232,223);"/></g></g></g><g id="button-down" transform="matrix(0.982906,0,0,0.982906,-1943.55,-96.9267)"><circle cx="2140.7" cy="1871.67" r="98.726" style="fill-opacity:0.58;"/><clipPath id="_clip3"><circle cx="2140.7" cy="1871.67" r="98.726"/></clipPath><g clip-path="url(#_clip3)"><g transform="matrix(1.24594,0,0,1.24594,-574.879,-451.502)"><circle cx="2179.51" cy="1864.92" r="58.223" style="fill:rgb(97,121,133);fill-opacity:0.33;"/><clipPath id="_clip4"><circle cx="2179.51" cy="1864.92" r="58.223"/></clipPath><g clip-path="url(#_clip4)"><g transform="matrix(-1.04713,-1.28236e-16,1.00001e-16,-0.816568,2393.95,3288.09)"><path d="M205.964,1695.5L242.687,1772.4L169.242,1772.4L205.964,1695.5ZM205.964,1720.23L187.221,1759.48L224.708,1759.48L205.964,1720.23Z" style="fill:rgb(236,246,255);"/></g><g transform="matrix(0.515784,0.403452,-0.370571,0.473749,2177.55,1666.57)"><g><path d="M187.677,160.673C141.968,164.267 104.858,206.575 104.858,257.853C104.858,309.132 141.968,351.439 187.677,355.033C137.654,354.157 97.042,310.914 97.042,257.853C97.042,204.792 137.654,161.549 187.677,160.673Z" style="fill:rgb(229,229,219);fill-opacity:0.42;"/></g></g><g transform="matrix(0.00253279,0.654828,-0.601461,0.00232637,2333.41,1740.95)"><g><path d="M187.677,160.673C141.968,164.267 104.858,206.575 104.858,257.853C104.858,309.132 141.968,351.439 187.677,355.033C137.654,354.157 97.042,310.914 97.042,257.853C97.042,204.792 137.654,161.549 187.677,160.673Z" style="fill:rgb(229,229,219);fill-opacity:0.42;"/></g></g><g transform="matrix(0.652803,-0.0515231,0.0473241,0.599601,2044.08,1719.51)"><g><path d="M187.677,160.673C141.968,164.267 104.858,206.575 104.858,257.853C104.858,309.132 141.968,351.439 187.677,355.033C137.654,354.157 97.042,310.914 97.042,257.853C97.042,204.792 137.654,161.549 187.677,160.673Z" style="fill:rgb(229,229,219);fill-opacity:0.42;"/></g></g><g transform="matrix(-0.526533,-0.364033,0.342049,-0.494736,2192.13,2062)"><g><path d="M187.677,160.673C141.799,164.16 104.551,206.505 104.551,257.853C104.551,309.202 141.799,351.546 187.677,355.033C137.654,354.157 97.042,310.914 97.042,257.853C97.042,204.792 137.654,161.549 187.677,160.673Z" style="fill:rgb(30,42,50);fill-opacity:0.79;"/></g></g></g></g><g id="button-down-active" transform="matrix(0.95626,1.04129e-16,0,0.95626,1945.7,1605.92)"><path d="M203.769,175.207C260.766,175.207 307.04,221.481 307.04,278.477C307.04,335.474 260.766,381.748 203.769,381.748C146.773,381.748 100.499,335.474 100.499,278.477C100.499,221.481 146.773,175.207 203.769,175.207ZM203.769,201.024C246.517,201.024 281.222,235.73 281.222,278.477C281.222,321.225 246.517,355.93 203.769,355.93C161.022,355.93 126.316,321.225 126.316,278.477C126.316,235.73 161.022,201.024 203.769,201.024Z" style="fill:rgb(71,168,255);"/></g><g transform="matrix(-1.09281,0.0106917,-0.0100383,-1.02603,2348.12,2134.95)"><g><path d="M187.677,160.673C140.413,163.287 102.041,205.932 102.041,257.853C102.041,309.774 140.413,352.419 187.677,355.033C137.654,354.157 97.042,310.914 97.042,257.853C97.042,204.792 137.654,161.549 187.677,160.673Z" style="fill:rgb(229,229,219);fill-opacity:0.64;"/></g></g><g transform="matrix(-0.49283,-0.975436,0.915826,-0.462712,1996.78,2174.77)"><g><path d="M187.677,160.673C140.413,163.287 102.041,205.932 102.041,257.853C102.041,309.774 140.413,352.419 187.677,355.033C137.654,354.157 97.042,310.914 97.042,257.853C97.042,204.792 137.654,161.549 187.677,160.673Z" style="fill:rgb(229,229,219);fill-opacity:0.64;"/></g></g><g transform="matrix(0.974506,0.494667,-0.464437,0.914952,2077.3,1543.63)"><g><path d="M187.677,160.673C140.413,163.287 102.041,205.932 102.041,257.853C102.041,309.774 140.413,352.419 187.677,355.033C137.654,354.157 97.042,310.914 97.042,257.853C97.042,204.792 137.654,161.549 187.677,160.673Z" style="fill-opacity:0.45;"/></g></g></g></g><g id="button-up" transform="matrix(0.982906,0,0,0.982906,-1943.55,-315.766)"><circle cx="2140.7" cy="1871.67" r="98.726" style="fill-opacity:0.58;"/><clipPath id="_clip5"><circle cx="2140.7" cy="1871.67" r="98.726"/></clipPath><g clip-path="url(#_clip5)"><g transform="matrix(1.24594,0,0,1.24594,-574.879,-451.502)"><circle cx="2179.51" cy="1864.92" r="58.223" style="fill:rgb(97,121,133);fill-opacity:0.33;"/><clipPath id="_clip6"><circle cx="2179.51" cy="1864.92" r="58.223"/></clipPath><g clip-path="url(#_clip6)"><g transform="matrix(1.04713,0,0,0.816568,1962.61,439.988)"><path d="M205.964,1695.5L242.687,1772.4L169.242,1772.4L205.964,1695.5ZM205.964,1720.23L187.221,1759.48L224.708,1759.48L205.964,1720.23Z" style="fill:rgb(236,246,255);"/></g><g transform="matrix(0.515784,0.403452,-0.370571,0.473749,2177.55,1666.57)"><g><path d="M187.677,160.673C141.968,164.267 104.858,206.575 104.858,257.853C104.858,309.132 141.968,351.439 187.677,355.033C137.654,354.157 97.042,310.914 97.042,257.853C97.042,204.792 137.654,161.549 187.677,160.673Z" style="fill:rgb(229,229,219);fill-opacity:0.42;"/></g></g><g transform="matrix(0.00253279,0.654828,-0.601461,0.00232637,2333.41,1740.95)"><g><path d="M187.677,160.673C141.968,164.267 104.858,206.575 104.858,257.853C104.858,309.132 141.968,351.439 187.677,355.033C137.654,354.157 97.042,310.914 97.042,257.853C97.042,204.792 137.654,161.549 187.677,160.673Z" style="fill:rgb(229,229,219);fill-opacity:0.42;"/></g></g><g transform="matrix(0.652803,-0.0515231,0.0473241,0.599601,2044.08,1719.51)"><g><path d="M187.677,160.673C141.968,164.267 104.858,206.575 104.858,257.853C104.858,309.132 141.968,351.439 187.677,355.033C137.654,354.157 97.042,310.914 97.042,257.853C97.042,204.792 137.654,161.549 187.677,160.673Z" style="fill:rgb(229,229,219);fill-opacity:0.42;"/></g></g><g transform="matrix(-0.526533,-0.364033,0.342049,-0.494736,2192.13,2062)"><g><path d="M187.677,160.673C141.799,164.16 104.551,206.505 104.551,257.853C104.551,309.202 141.799,351.546 187.677,355.033C137.654,354.157 97.042,310.914 97.042,257.853C97.042,204.792 137.654,161.549 187.677,160.673Z" style="fill:rgb(30,42,50);fill-opacity:0.79;"/></g></g></g></g><g id="button-up-active" transform="matrix(0.95626,1.04129e-16,0,0.95626,1945.7,1605.92)"><path d="M203.769,175.207C260.766,175.207 307.04,221.481 307.04,278.477C307.04,335.474 260.766,381.748 203.769,381.748C146.773,381.748 100.499,335.474 100.499,278.477C100.499,221.481 146.773,175.207 203.769,175.207ZM203.769,201.024C246.517,201.024 281.222,235.73 281.222,278.477C281.222,321.225 246.517,355.93 203.769,355.93C161.022,355.93 126.316,321.225 126.316,278.477C126.316,235.73 161.022,201.024 203.769,201.024Z" style="fill:rgb(71,168,255);"/></g><g transform="matrix(-1.09281,0.0106917,-0.0100383,-1.02603,2348.12,2134.95)"><g><path d="M187.677,160.673C140.413,163.287 102.041,205.932 102.041,257.853C102.041,309.774 140.413,352.419 187.677,355.033C137.654,354.157 97.042,310.914 97.042,257.853C97.042,204.792 137.654,161.549 187.677,160.673Z" style="fill:rgb(229,229,219);fill-opacity:0.64;"/></g></g><g transform="matrix(-0.49283,-0.975436,0.915826,-0.462712,1996.78,2174.77)"><g><path d="M187.677,160.673C140.413,163.287 102.041,205.932 102.041,257.853C102.041,309.774 140.413,352.419 187.677,355.033C137.654,354.157 97.042,310.914 97.042,257.853C97.042,204.792 137.654,161.549 187.677,160.673Z" style="fill:rgb(229,229,219);fill-opacity:0.64;"/></g></g><g transform="matrix(0.974506,0.494667,-0.464437,0.914952,2077.3,1543.63)"><g><path d="M187.677,160.673C140.413,163.287 102.041,205.932 102.041,257.853C102.041,309.774 140.413,352.419 187.677,355.033C137.654,354.157 97.042,310.914 97.042,257.853C97.042,204.792 137.654,161.549 187.677,160.673Z" style="fill-opacity:0.45;"/></g></g></g></g><g id="button-right" transform="matrix(0.982906,0,0,0.982906,-1943.55,-534.605)"><circle cx="2140.7" cy="1871.67" r="98.726" style="fill-opacity:0.58;"/><clipPath id="_clip7"><circle cx="2140.7" cy="1871.67" r="98.726"/></clipPath><g clip-path="url(#_clip7)"><g transform="matrix(1.24594,0,0,1.24594,-574.879,-451.502)"><circle cx="2179.51" cy="1864.92" r="58.223" style="fill:rgb(97,121,133);fill-opacity:0.33;"/><clipPath id="_clip8"><circle cx="2179.51" cy="1864.92" r="58.223"/></clipPath><g clip-path="url(#_clip8)"><g transform="matrix(6.41181e-17,1.04713,-0.816568,5.00004e-17,3604.78,1650)"><path d="M205.964,1695.5L242.687,1772.4L169.242,1772.4L205.964,1695.5ZM205.964,1720.23L187.221,1759.48L224.708,1759.48L205.964,1720.23Z" style="fill:rgb(236,246,255);"/></g><g transform="matrix(0.515784,0.403452,-0.370571,0.473749,2177.55,1666.57)"><g><path d="M187.677,160.673C141.968,164.267 104.858,206.575 104.858,257.853C104.858,309.132 141.968,351.439 187.677,355.033C137.654,354.157 97.042,310.914 97.042,257.853C97.042,204.792 137.654,161.549 187.677,160.673Z" style="fill:rgb(229,229,219);fill-opacity:0.42;"/></g></g><g transform="matrix(0.00253279,0.654828,-0.601461,0.00232637,2333.41,1740.95)"><g><path d="M187.677,160.673C141.968,164.267 104.858,206.575 104.858,257.853C104.858,309.132 141.968,351.439 187.677,355.033C137.654,354.157 97.042,310.914 97.042,257.853C97.042,204.792 137.654,161.549 187.677,160.673Z" style="fill:rgb(229,229,219);fill-opacity:0.42;"/></g></g><g transform="matrix(0.652803,-0.0515231,0.0473241,0.599601,2044.08,1719.51)"><g><path d="M187.677,160.673C141.968,164.267 104.858,206.575 104.858,257.853C104.858,309.132 141.968,351.439 187.677,355.033C137.654,354.157 97.042,310.914 97.042,257.853C97.042,204.792 137.654,161.549 187.677,160.673Z" style="fill:rgb(229,229,219);fill-opacity:0.42;"/></g></g><g transform="matrix(-0.526533,-0.364033,0.342049,-0.494736,2192.13,2062)"><g><path d="M187.677,160.673C141.799,164.16 104.551,206.505 104.551,257.853C104.551,309.202 141.799,351.546 187.677,355.033C137.654,354.157 97.042,310.914 97.042,257.853C97.042,204.792 137.654,161.549 187.677,160.673Z" style="fill:rgb(30,42,50);fill-opacity:0.79;"/></g></g></g></g><g id="button-right-active" transform="matrix(0.95626,1.04129e-16,0,0.95626,1945.7,1605.92)"><path d="M203.769,175.207C260.766,175.207 307.04,221.481 307.04,278.477C307.04,335.474 260.766,381.748 203.769,381.748C146.773,381.748 100.499,335.474 100.499,278.477C100.499,221.481 146.773,175.207 203.769,175.207ZM203.769,201.024C246.517,201.024 281.222,235.73 281.222,278.477C281.222,321.225 246.517,355.93 203.769,355.93C161.022,355.93 126.316,321.225 126.316,278.477C126.316,235.73 161.022,201.024 203.769,201.024Z" style="fill:rgb(71,168,255);"/></g><g transform="matrix(-1.09281,0.0106917,-0.0100383,-1.02603,2348.12,2134.95)"><g><path d="M187.677,160.673C140.413,163.287 102.041,205.932 102.041,257.853C102.041,309.774 140.413,352.419 187.677,355.033C137.654,354.157 97.042,310.914 97.042,257.853C97.042,204.792 137.654,161.549 187.677,160.673Z" style="fill:rgb(229,229,219);fill-opacity:0.64;"/></g></g><g transform="matrix(-0.49283,-0.975436,0.915826,-0.462712,1996.78,2174.77)"><g><path d="M187.677,160.673C140.413,163.287 102.041,205.932 102.041,257.853C102.041,309.774 140.413,352.419 187.677,355.033C137.654,354.157 97.042,310.914 97.042,257.853C97.042,204.792 137.654,161.549 187.677,160.673Z" style="fill:rgb(229,229,219);fill-opacity:0.64;"/></g></g><g transform="matrix(0.974506,0.494667,-0.464437,0.914952,2077.3,1543.63)"><g><path d="M187.677,160.673C140.413,163.287 102.041,205.932 102.041,257.853C102.041,309.774 140.413,352.419 187.677,355.033C137.654,354.157 97.042,310.914 97.042,257.853C97.042,204.792 137.654,161.549 187.677,160.673Z" style="fill-opacity:0.45;"/></g></g></g></g><g id="button-left" transform="matrix(0.982906,0,0,0.982906,-1943.55,-753.444)"><circle cx="2140.7" cy="1871.67" r="98.726" style="fill-opacity:0.58;"/><clipPath id="_clip9"><circle cx="2140.7" cy="1871.67" r="98.726"/></clipPath><g clip-path="url(#_clip9)"><g transform="matrix(1.24594,0,0,1.24594,-574.888,-451.502)"><circle cx="2179.51" cy="1864.92" r="58.223" style="fill:rgb(97,121,133);fill-opacity:0.33;"/><clipPath id="_clip10"><circle cx="2179.51" cy="1864.92" r="58.223"/></clipPath><g clip-path="url(#_clip10)"><g transform="matrix(6.41181e-17,-1.04713,0.816568,5.00004e-17,753.409,2081.34)"><path d="M205.964,1695.5L242.687,1772.4L169.242,1772.4L205.964,1695.5ZM205.964,1717.76C205.964,1717.76 185.423,1760.77 185.423,1760.77C185.423,1760.77 226.506,1760.77 226.506,1760.77L205.964,1717.76Z" style="fill:rgb(236,246,255);"/></g><g transform="matrix(0.515784,0.403452,-0.370571,0.473749,2177.55,1666.57)"><g><path d="M187.677,160.673C141.968,164.267 104.858,206.575 104.858,257.853C104.858,309.132 141.968,351.439 187.677,355.033C137.654,354.157 97.042,310.914 97.042,257.853C97.042,204.792 137.654,161.549 187.677,160.673Z" style="fill:rgb(229,229,219);fill-opacity:0.42;"/></g></g><g transform="matrix(0.00253279,0.654828,-0.601461,0.00232637,2333.41,1740.95)"><g><path d="M187.677,160.673C141.968,164.267 104.858,206.575 104.858,257.853C104.858,309.132 141.968,351.439 187.677,355.033C137.654,354.157 97.042,310.914 97.042,257.853C97.042,204.792 137.654,161.549 187.677,160.673Z" style="fill:rgb(229,229,219);fill-opacity:0.42;"/></g></g><g transform="matrix(0.652803,-0.0515231,0.0473241,0.599601,2044.08,1719.51)"><g><path d="M187.677,160.673C141.968,164.267 104.858,206.575 104.858,257.853C104.858,309.132 141.968,351.439 187.677,355.033C137.654,354.157 97.042,310.914 97.042,257.853C97.042,204.792 137.654,161.549 187.677,160.673Z" style="fill:rgb(229,229,219);fill-opacity:0.42;"/></g></g><g transform="matrix(-0.526533,-0.364033,0.342049,-0.494736,2192.13,2062)"><g><path d="M187.677,160.673C141.799,164.16 104.551,206.505 104.551,257.853C104.551,309.202 141.799,351.546 187.677,355.033C137.654,354.157 97.042,310.914 97.042,257.853C97.042,204.792 137.654,161.549 187.677,160.673Z" style="fill:rgb(30,42,50);fill-opacity:0.79;"/></g></g></g></g><g id="button-left-active" transform="matrix(0.95626,1.04129e-16,0,0.95626,1945.7,1605.92)"><path d="M203.769,175.207C260.766,175.207 307.04,221.481 307.04,278.477C307.04,335.474 260.766,381.748 203.769,381.748C146.773,381.748 100.499,335.474 100.499,278.477C100.499,221.481 146.773,175.207 203.769,175.207ZM203.769,201.024C246.517,201.024 281.222,235.73 281.222,278.477C281.222,321.225 246.517,355.93 203.769,355.93C161.022,355.93 126.316,321.225 126.316,278.477C126.316,235.73 161.022,201.024 203.769,201.024Z" style="fill:rgb(71,168,255);"/></g><g transform="matrix(-1.09281,0.0106917,-0.0100383,-1.02603,2348.12,2134.95)"><g><path d="M187.677,160.673C140.413,163.287 102.041,205.932 102.041,257.853C102.041,309.774 140.413,352.419 187.677,355.033C137.654,354.157 97.042,310.914 97.042,257.853C97.042,204.792 137.654,161.549 187.677,160.673Z" style="fill:rgb(229,229,219);fill-opacity:0.64;"/></g></g><g transform="matrix(-0.49283,-0.975436,0.915826,-0.462712,1996.78,2174.77)"><g><path d="M187.677,160.673C140.413,163.287 102.041,205.932 102.041,257.853C102.041,309.774 140.413,352.419 187.677,355.033C137.654,354.157 97.042,310.914 97.042,257.853C97.042,204.792 137.654,161.549 187.677,160.673Z" style="fill:rgb(229,229,219);fill-opacity:0.64;"/></g></g><g transform="matrix(0.974506,0.494667,-0.464437,0.914952,2077.3,1543.63)"><g><path d="M187.677,160.673C140.413,163.287 102.041,205.932 102.041,257.853C102.041,309.774 140.413,352.419 187.677,355.033C137.654,354.157 97.042,310.914 97.042,257.853C97.042,204.792 137.654,161.549 187.677,160.673Z" style="fill-opacity:0.45;"/></g></g></g></g><g id="button-b" transform="matrix(0.982906,0,0,0.982906,-1943.55,-1066.27)"><circle cx="2140.7" cy="1871.67" r="98.726" style="fill-opacity:0.58;"/><clipPath id="_clip11"><circle cx="2140.7" cy="1871.67" r="98.726"/></clipPath><g clip-path="url(#_clip11)"><g transform="matrix(1.24594,0,0,1.24594,-574.879,-451.502)"><circle cx="2179.51" cy="1864.92" r="58.223" style="fill:rgb(97,121,133);fill-opacity:0.33;"/><clipPath id="_clip12"><circle cx="2179.51" cy="1864.92" r="58.223"/></clipPath><g clip-path="url(#_clip12)"><g transform="matrix(0.795243,0,0,0.795243,471.473,395.789)"><g transform="matrix(120.833,0,0,120.833,2105.74,1886.92)"><path d="M0.073,-0.716L0.359,-0.716C0.416,-0.716 0.458,-0.713 0.486,-0.708C0.514,-0.704 0.539,-0.694 0.561,-0.679C0.583,-0.664 0.601,-0.644 0.616,-0.619C0.63,-0.594 0.638,-0.567 0.638,-0.536C0.638,-0.502 0.629,-0.471 0.61,-0.443C0.592,-0.415 0.568,-0.394 0.537,-0.38C0.581,-0.368 0.614,-0.346 0.638,-0.315C0.661,-0.285 0.673,-0.249 0.673,-0.208C0.673,-0.175 0.665,-0.143 0.65,-0.112C0.635,-0.082 0.614,-0.057 0.588,-0.039C0.562,-0.02 0.53,-0.009 0.491,-0.005C0.467,-0.002 0.409,-0.001 0.317,-0L0.073,-0L0.073,-0.716ZM0.218,-0.597L0.218,-0.431L0.313,-0.431C0.369,-0.431 0.404,-0.432 0.417,-0.434C0.442,-0.437 0.462,-0.445 0.476,-0.459C0.49,-0.473 0.497,-0.492 0.497,-0.515C0.497,-0.537 0.491,-0.555 0.479,-0.569C0.466,-0.583 0.448,-0.591 0.424,-0.594C0.41,-0.596 0.369,-0.597 0.301,-0.597L0.218,-0.597ZM0.218,-0.312L0.218,-0.121L0.352,-0.121C0.404,-0.121 0.437,-0.122 0.451,-0.125C0.472,-0.129 0.49,-0.138 0.503,-0.153C0.517,-0.169 0.523,-0.189 0.523,-0.214C0.523,-0.236 0.518,-0.254 0.508,-0.269C0.497,-0.284 0.482,-0.295 0.462,-0.302C0.443,-0.309 0.4,-0.312 0.334,-0.312L0.218,-0.312Z" style="fill:rgb(236,246,255);fill-rule:nonzero;"/></g></g><g transform="matrix(0.515784,0.403452,-0.370571,0.473749,2177.55,1666.57)"><g><path d="M187.677,160.673C141.968,164.267 104.858,206.575 104.858,257.853C104.858,309.132 141.968,351.439 187.677,355.033C137.654,354.157 97.042,310.914 97.042,257.853C97.042,204.792 137.654,161.549 187.677,160.673Z" style="fill:rgb(229,229,219);fill-opacity:0.42;"/></g></g><g transform="matrix(0.00253279,0.654828,-0.601461,0.00232637,2333.41,1740.95)"><g><path d="M187.677,160.673C141.968,164.267 104.858,206.575 104.858,257.853C104.858,309.132 141.968,351.439 187.677,355.033C137.654,354.157 97.042,310.914 97.042,257.853C97.042,204.792 137.654,161.549 187.677,160.673Z" style="fill:rgb(229,229,219);fill-opacity:0.42;"/></g></g><g transform="matrix(0.652803,-0.0515231,0.0473241,0.599601,2044.08,1719.51)"><g><path d="M187.677,160.673C141.968,164.267 104.858,206.575 104.858,257.853C104.858,309.132 141.968,351.439 187.677,355.033C137.654,354.157 97.042,310.914 97.042,257.853C97.042,204.792 137.654,161.549 187.677,160.673Z" style="fill:rgb(229,229,219);fill-opacity:0.42;"/></g></g><g transform="matrix(-0.526533,-0.364033,0.342049,-0.494736,2192.13,2062)"><g><path d="M187.677,160.673C141.799,164.16 104.551,206.505 104.551,257.853C104.551,309.202 141.799,351.546 187.677,355.033C137.654,354.157 97.042,310.914 97.042,257.853C97.042,204.792 137.654,161.549 187.677,160.673Z" style="fill:rgb(30,42,50);fill-opacity:0.79;"/></g></g></g></g><g id="button-b-active" transform="matrix(0.95626,1.04129e-16,0,0.95626,1945.7,1605.92)"><path d="M203.769,175.207C260.766,175.207 307.04,221.481 307.04,278.477C307.04,335.474 260.766,381.748 203.769,381.748C146.773,381.748 100.499,335.474 100.499,278.477C100.499,221.481 146.773,175.207 203.769,175.207ZM203.769,201.024C246.517,201.024 281.222,235.73 281.222,278.477C281.222,321.225 246.517,355.93 203.769,355.93C161.022,355.93 126.316,321.225 126.316,278.477C126.316,235.73 161.022,201.024 203.769,201.024Z" style="fill:rgb(71,168,255);"/></g><g transform="matrix(-1.09281,0.0106917,-0.0100383,-1.02603,2348.12,2134.95)"><g><path d="M187.677,160.673C140.413,163.287 102.041,205.932 102.041,257.853C102.041,309.774 140.413,352.419 187.677,355.033C137.654,354.157 97.042,310.914 97.042,257.853C97.042,204.792 137.654,161.549 187.677,160.673Z" style="fill:rgb(229,229,219);fill-opacity:0.64;"/></g></g><g transform="matrix(-0.49283,-0.975436,0.915826,-0.462712,1996.78,2174.77)"><g><path d="M187.677,160.673C140.413,163.287 102.041,205.932 102.041,257.853C102.041,309.774 140.413,352.419 187.677,355.033C137.654,354.157 97.042,310.914 97.042,257.853C97.042,204.792 137.654,161.549 187.677,160.673Z" style="fill:rgb(229,229,219);fill-opacity:0.64;"/></g></g><g transform="matrix(0.974506,0.494667,-0.464437,0.914952,2077.3,1543.63)"><g><path d="M187.677,160.673C140.413,163.287 102.041,205.932 102.041,257.853C102.041,309.774 140.413,352.419 187.677,355.033C137.654,354.157 97.042,310.914 97.042,257.853C97.042,204.792 137.654,161.549 187.677,160.673Z" style="fill-opacity:0.45;"/></g></g></g></g><g id="button-a" transform="matrix(0.982906,0,0,0.982906,-1943.55,-1282.77)"><circle cx="2140.7" cy="1871.67" r="98.726" style="fill-opacity:0.58;"/><clipPath id="_clip13"><circle cx="2140.7" cy="1871.67" r="98.726"/></clipPath><g clip-path="url(#_clip13)"><g transform="matrix(1.24594,0,0,1.24594,-574.879,-451.502)"><circle cx="2179.51" cy="1864.92" r="58.223" style="fill:rgb(97,121,133);fill-opacity:0.33;"/><clipPath id="_clip14"><circle cx="2179.51" cy="1864.92" r="58.223"/></clipPath><g clip-path="url(#_clip14)"><g transform="matrix(0.795243,0,0,0.795243,469.84,394.156)"><g transform="matrix(120.833,0,0,120.833,2105.74,1886.92)"><path d="M0.718,-0L0.561,-0L0.499,-0.163L0.212,-0.163L0.153,-0L0,-0L0.279,-0.716L0.432,-0.716L0.718,-0ZM0.452,-0.283L0.354,-0.549L0.257,-0.283L0.452,-0.283Z" style="fill:rgb(236,246,255);fill-rule:nonzero;"/></g></g><g transform="matrix(0.515784,0.403452,-0.370571,0.473749,2177.55,1666.57)"><g><path d="M187.677,160.673C141.968,164.267 104.858,206.575 104.858,257.853C104.858,309.132 141.968,351.439 187.677,355.033C137.654,354.157 97.042,310.914 97.042,257.853C97.042,204.792 137.654,161.549 187.677,160.673Z" style="fill:rgb(229,229,219);fill-opacity:0.42;"/></g></g><g transform="matrix(0.00253279,0.654828,-0.601461,0.00232637,2333.41,1740.95)"><g><path d="M187.677,160.673C141.968,164.267 104.858,206.575 104.858,257.853C104.858,309.132 141.968,351.439 187.677,355.033C137.654,354.157 97.042,310.914 97.042,257.853C97.042,204.792 137.654,161.549 187.677,160.673Z" style="fill:rgb(229,229,219);fill-opacity:0.42;"/></g></g><g transform="matrix(0.652803,-0.0515231,0.0473241,0.599601,2044.08,1719.51)"><g><path d="M187.677,160.673C141.968,164.267 104.858,206.575 104.858,257.853C104.858,309.132 141.968,351.439 187.677,355.033C137.654,354.157 97.042,310.914 97.042,257.853C97.042,204.792 137.654,161.549 187.677,160.673Z" style="fill:rgb(229,229,219);fill-opacity:0.42;"/></g></g><g transform="matrix(-0.526533,-0.364033,0.342049,-0.494736,2192.13,2062)"><g><path d="M187.677,160.673C141.799,164.16 104.551,206.505 104.551,257.853C104.551,309.202 141.799,351.546 187.677,355.033C137.654,354.157 97.042,310.914 97.042,257.853C97.042,204.792 137.654,161.549 187.677,160.673Z" style="fill:rgb(30,42,50);fill-opacity:0.79;"/></g></g></g></g><g id="button-a-active" transform="matrix(0.95626,1.04129e-16,0,0.95626,1945.7,1605.92)"><path d="M203.769,175.207C260.766,175.207 307.04,221.481 307.04,278.477C307.04,335.474 260.766,381.748 203.769,381.748C146.773,381.748 100.499,335.474 100.499,278.477C100.499,221.481 146.773,175.207 203.769,175.207ZM203.769,201.024C246.517,201.024 281.222,235.73 281.222,278.477C281.222,321.225 246.517,355.93 203.769,355.93C161.022,355.93 126.316,321.225 126.316,278.477C126.316,235.73 161.022,201.024 203.769,201.024Z" style="fill:rgb(71,168,255);"/></g><g transform="matrix(-1.09281,0.0106917,-0.0100383,-1.02603,2348.12,2134.95)"><g><path d="M187.677,160.673C140.413,163.287 102.041,205.932 102.041,257.853C102.041,309.774 140.413,352.419 187.677,355.033C137.654,354.157 97.042,310.914 97.042,257.853C97.042,204.792 137.654,161.549 187.677,160.673Z" style="fill:rgb(229,229,219);fill-opacity:0.64;"/></g></g><g transform="matrix(-0.49283,-0.975436,0.915826,-0.462712,1996.78,2174.77)"><g><path d="M187.677,160.673C140.413,163.287 102.041,205.932 102.041,257.853C102.041,309.774 140.413,352.419 187.677,355.033C137.654,354.157 97.042,310.914 97.042,257.853C97.042,204.792 137.654,161.549 187.677,160.673Z" style="fill:rgb(229,229,219);fill-opacity:0.64;"/></g></g><g transform="matrix(0.974506,0.494667,-0.464437,0.914952,2077.3,1543.63)"><g><path d="M187.677,160.673C140.413,163.287 102.041,205.932 102.041,257.853C102.041,309.774 140.413,352.419 187.677,355.033C137.654,354.157 97.042,310.914 97.042,257.853C97.042,204.792 137.654,161.549 187.677,160.673Z" style="fill-opacity:0.45;"/></g></g></g></g><g id="button-power" transform="matrix(0.982906,0,0,0.982906,-1943.55,-1590.5)"><circle cx="2140.7" cy="1871.67" r="98.726" style="fill-opacity:0.58;"/><clipPath id="_clip15"><circle cx="2140.7" cy="1871.67" r="98.726"/></clipPath><g clip-path="url(#_clip15)"><g transform="matrix(1.24594,0,0,1.24594,-574.879,-451.502)"><circle cx="2179.51" cy="1864.92" r="58.223" style="fill:rgb(97,121,133);fill-opacity:0.33;"/><clipPath id="_clip16"><circle cx="2179.51" cy="1864.92" r="58.223"/></clipPath><g clip-path="url(#_clip16)"><g transform="matrix(0.816568,0,0,0.816568,1789.59,1486.4)"><path d="M507.139,429.676L507.141,429.674C516.997,438.076 522.821,450.457 522.821,463.652C522.821,488.297 502.813,508.305 478.169,508.305C453.524,508.305 433.516,488.297 433.516,463.652C433.516,450.398 439.393,437.965 449.33,429.561L449.333,429.565C450.402,428.657 451.787,428.109 453.298,428.109C456.683,428.109 459.431,430.857 459.431,434.242C459.431,436.21 458.502,437.963 457.059,439.086C449.967,445.179 445.779,454.123 445.779,463.652C445.779,481.529 460.292,496.042 478.169,496.042C496.045,496.042 510.558,481.529 510.558,463.652C510.558,454.085 506.337,445.107 499.192,439.012C497.802,437.888 496.913,436.168 496.913,434.242C496.913,430.857 499.661,428.109 503.046,428.109C504.618,428.109 506.053,428.702 507.139,429.676ZM484.524,414.455L484.524,465.155C484.524,468.749 481.606,471.667 478.012,471.667C474.418,471.667 471.5,468.749 471.5,465.155L471.5,414.455C471.5,410.861 474.418,407.944 478.012,407.944C481.606,407.944 484.524,410.861 484.524,414.455Z" style="fill:rgb(234,255,247);"/></g><g transform="matrix(0.515784,0.403452,-0.370571,0.473749,2177.55,1666.57)"><g><path d="M187.677,160.673C141.968,164.267 104.858,206.575 104.858,257.853C104.858,309.132 141.968,351.439 187.677,355.033C137.654,354.157 97.042,310.914 97.042,257.853C97.042,204.792 137.654,161.549 187.677,160.673Z" style="fill:rgb(229,229,219);fill-opacity:0.42;"/></g></g><g transform="matrix(0.00253279,0.654828,-0.601461,0.00232637,2333.41,1740.95)"><g><path d="M187.677,160.673C141.968,164.267 104.858,206.575 104.858,257.853C104.858,309.132 141.968,351.439 187.677,355.033C137.654,354.157 97.042,310.914 97.042,257.853C97.042,204.792 137.654,161.549 187.677,160.673Z" style="fill:rgb(229,229,219);fill-opacity:0.42;"/></g></g><g transform="matrix(0.652803,-0.0515231,0.0473241,0.599601,2044.08,1719.51)"><g><path d="M187.677,160.673C141.968,164.267 104.858,206.575 104.858,257.853C104.858,309.132 141.968,351.439 187.677,355.033C137.654,354.157 97.042,310.914 97.042,257.853C97.042,204.792 137.654,161.549 187.677,160.673Z" style="fill:rgb(229,229,219);fill-opacity:0.42;"/></g></g><g transform="matrix(-0.526533,-0.364033,0.342049,-0.494736,2192.13,2062)"><g><path d="M187.677,160.673C141.799,164.16 104.551,206.505 104.551,257.853C104.551,309.202 141.799,351.546 187.677,355.033C137.654,354.157 97.042,310.914 97.042,257.853C97.042,204.792 137.654,161.549 187.677,160.673Z" style="fill:rgb(30,42,50);fill-opacity:0.79;"/></g></g></g></g><g transform="matrix(0.95626,1.04129e-16,0,0.95626,1945.7,1605.92)"><path d="M203.769,175.207C260.766,175.207 307.04,221.481 307.04,278.477C307.04,335.474 260.766,381.748 203.769,381.748C146.773,381.748 100.499,335.474 100.499,278.477C100.499,221.481 146.773,175.207 203.769,175.207ZM203.769,201.024C246.517,201.024 281.222,235.73 281.222,278.477C281.222,321.225 246.517,355.93 203.769,355.93C161.022,355.93 126.316,321.225 126.316,278.477C126.316,235.73 161.022,201.024 203.769,201.024Z" style="fill:rgb(55,76,91);"/></g><g id="button-power-on" transform="matrix(0.95626,1.04129e-16,0,0.95626,1945.7,1605.92)"><path d="M203.769,175.207C260.766,175.207 307.04,221.481 307.04,278.477C307.04,335.474 260.766,381.748 203.769,381.748C146.773,381.748 100.499,335.474 100.499,278.477C100.499,221.481 146.773,175.207 203.769,175.207ZM203.769,201.024C246.517,201.024 281.222,235.73 281.222,278.477C281.222,321.225 246.517,355.93 203.769,355.93C161.022,355.93 126.316,321.225 126.316,278.477C126.316,235.73 161.022,201.024 203.769,201.024Z" style="fill:rgb(58,255,179);"/></g><g transform="matrix(-1.09281,0.0106917,-0.0100383,-1.02603,2348.12,2134.95)"><g><path d="M187.677,160.673C140.413,163.287 102.041,205.932 102.041,257.853C102.041,309.774 140.413,352.419 187.677,355.033C137.654,354.157 97.042,310.914 97.042,257.853C97.042,204.792 137.654,161.549 187.677,160.673Z" style="fill:rgb(229,229,219);fill-opacity:0.64;"/></g></g><g transform="matrix(-0.49283,-0.975436,0.915826,-0.462712,1996.78,2174.77)"><g><path d="M187.677,160.673C140.413,163.287 102.041,205.932 102.041,257.853C102.041,309.774 140.413,352.419 187.677,355.033C137.654,354.157 97.042,310.914 97.042,257.853C97.042,204.792 137.654,161.549 187.677,160.673Z" style="fill:rgb(229,229,219);fill-opacity:0.64;"/></g></g><g transform="matrix(0.974506,0.494667,-0.464437,0.914952,2077.3,1543.63)"><g><path d="M187.677,160.673C140.413,163.287 102.041,205.932 102.041,257.853C102.041,309.774 140.413,352.419 187.677,355.033C137.654,354.157 97.042,310.914 97.042,257.853C97.042,204.792 137.654,161.549 187.677,160.673Z" style="fill-opacity:0.45;"/></g></g></g></g><g id="button-down-focus" transform="matrix(0.824595,0,0,0.824595,9.49574,891.783)"><path d="M182.228,911.303C248.667,911.303 302.607,965.243 302.607,1031.68C302.607,1098.12 248.667,1152.06 182.228,1152.06C115.789,1152.06 61.849,1098.12 61.849,1031.68C61.849,965.243 115.789,911.303 182.228,911.303ZM182.228,916.113C246.013,916.113 297.797,967.898 297.797,1031.68C297.797,1095.47 246.013,1147.25 182.228,1147.25C118.443,1147.25 66.659,1095.47 66.659,1031.68C66.659,967.898 118.443,916.113 182.228,916.113Z" style="fill:rgb(235,232,223);"/></g><g id="button-up-focus" transform="matrix(0.824595,0,0,0.824595,9.49574,673.756)"><path d="M182.228,911.303C248.667,911.303 302.607,965.243 302.607,1031.68C302.607,1098.12 248.667,1152.06 182.228,1152.06C115.789,1152.06 61.849,1098.12 61.849,1031.68C61.849,965.243 115.789,911.303 182.228,911.303ZM182.228,916.113C246.013,916.113 297.797,967.898 297.797,1031.68C297.797,1095.47 246.013,1147.25 182.228,1147.25C118.443,1147.25 66.659,1095.47 66.659,1031.68C66.659,967.898 118.443,916.113 182.228,916.113Z" style="fill:rgb(235,232,223);"/></g><g id="button-right-focus" transform="matrix(0.824595,0,0,0.824595,9.49574,455.729)"><path d="M182.228,911.303C248.667,911.303 302.607,965.243 302.607,1031.68C302.607,1098.12 248.667,1152.06 182.228,1152.06C115.789,1152.06 61.849,1098.12 61.849,1031.68C61.849,965.243 115.789,911.303 182.228,911.303ZM182.228,916.113C246.013,916.113 297.797,967.898 297.797,1031.68C297.797,1095.47 246.013,1147.25 182.228,1147.25C118.443,1147.25 66.659,1095.47 66.659,1031.68C66.659,967.898 118.443,916.113 182.228,916.113Z" style="fill:rgb(235,232,223);"/></g><g id="button-left-focus" transform="matrix(0.824595,0,0,0.824595,9.49574,235.439)"><path d="M182.228,911.303C248.667,911.303 302.607,965.243 302.607,1031.68C302.607,1098.12 248.667,1152.06 182.228,1152.06C115.789,1152.06 61.849,1098.12 61.849,1031.68C61.849,965.243 115.789,911.303 182.228,911.303ZM182.228,916.113C246.013,916.113 297.797,967.898 297.797,1031.68C297.797,1095.47 246.013,1147.25 182.228,1147.25C118.443,1147.25 66.659,1095.47 66.659,1031.68C66.659,967.898 118.443,916.113 182.228,916.113Z" style="fill:rgb(235,232,223);"/></g><g id="button-b-focus" transform="matrix(0.824595,0,0,0.824595,9.49574,-79.4263)"><path d="M182.228,911.303C248.667,911.303 302.607,965.243 302.607,1031.68C302.607,1098.12 248.667,1152.06 182.228,1152.06C115.789,1152.06 61.849,1098.12 61.849,1031.68C61.849,965.243 115.789,911.303 182.228,911.303ZM182.228,916.113C246.013,916.113 297.797,967.898 297.797,1031.68C297.797,1095.47 246.013,1147.25 182.228,1147.25C118.443,1147.25 66.659,1095.47 66.659,1031.68C66.659,967.898 118.443,916.113 182.228,916.113Z" style="fill:rgb(235,232,223);"/></g><g id="button-a-focus" transform="matrix(0.824595,0,0,0.824595,9.49574,-295.711)"><path d="M182.228,911.303C248.667,911.303 302.607,965.243 302.607,1031.68C302.607,1098.12 248.667,1152.06 182.228,1152.06C115.789,1152.06 61.849,1098.12 61.849,1031.68C61.849,965.243 115.789,911.303 182.228,911.303ZM182.228,916.113C246.013,916.113 297.797,967.898 297.797,1031.68C297.797,1095.47 246.013,1147.25 182.228,1147.25C118.443,1147.25 66.659,1095.47 66.659,1031.68C66.659,967.898 118.443,916.113 182.228,916.113Z" style="fill:rgb(235,232,223);"/></g><g id="button-power-focus" transform="matrix(0.824595,0,0,0.824595,9.49574,-602.302)"><path d="M182.228,911.303C248.667,911.303 302.607,965.243 302.607,1031.68C302.607,1098.12 248.667,1152.06 182.228,1152.06C115.789,1152.06 61.849,1098.12 61.849,1031.68C61.849,965.243 115.789,911.303 182.228,911.303ZM182.228,916.113C246.013,916.113 297.797,967.898 297.797,1031.68C297.797,1095.47 246.013,1147.25 182.228,1147.25C118.443,1147.25 66.659,1095.47 66.659,1031.68C66.659,967.898 118.443,916.113 182.228,916.113Z" style="fill:rgb(235,232,223);"/></g><g transform="matrix(-0.305901,-0.305901,0.305901,-0.305901,775.809,3289.9)"><path d="M2161.12,2082.47L2180.57,2098.29C2176.94,2102.76 2174.95,2108.35 2174.95,2114.11C2174.95,2119.88 2176.94,2125.46 2180.57,2129.93L2161.12,2145.76C2153.85,2136.81 2149.88,2125.64 2149.88,2114.11C2149.88,2102.59 2153.85,2091.41 2161.12,2082.47Z"/></g><g transform="matrix(0.305901,-0.305901,0.305901,0.305901,480.832,1996.48)"><path d="M2161.12,2082.47L2180.57,2098.29C2176.94,2102.76 2174.95,2108.35 2174.95,2114.11C2174.95,2119.88 2176.94,2125.46 2180.57,2129.93L2161.12,2145.76C2153.85,2136.81 2149.88,2125.64 2149.88,2114.11C2149.88,2102.59 2153.85,2091.41 2161.12,2082.47Z"/></g><g transform="matrix(1,0,0,1,-316,-213.989)"><path d="M702.43,2011.31C702.162,2011.13 701.567,2010.59 701.567,2010.59L702.43,2011.31Z"/></g></svg>