<?xml version="1.0" encoding="UTF-8" standalone="no"?><!DOCTYPE svg PUBLIC "-//W3C//DTD SVG 1.1//EN" "http://www.w3.org/Graphics/SVG/1.1/DTD/svg11.dtd"><svg width="100%" height="100%" viewBox="0 0 2494 1994" version="1.1" xmlns="http://www.w3.org/2000/svg" xmlns:xlink="http://www.w3.org/1999/xlink" xml:space="preserve" xmlns:serif="http://www.serif.com/" style="fill-rule:evenodd;clip-rule:evenodd;stroke-linejoin:round;stroke-miterlimit:2;"><g transform="matrix(1.01356,0,0,1.00368,-48.176,-50.358)"><path d="M1802.24,55.463C1802.65,55.044 1803.1,54.459 1803.56,54.064C1804.07,53.632 1804.56,53.089 1805.15,52.709C1805.72,52.343 1806.42,51.771 1807.04,51.502C1807.7,51.218 1808.53,50.951 1809.27,50.767C1810.1,50.56 1811.14,50.337 1812.06,50.259C1812.94,50.184 1814.75,50.184 1814.75,50.184L2432.92,50.184C2474.24,50.184 2507.78,84.058 2507.78,125.782L2507.78,1960.63C2507.78,2002.35 2474.24,2036.23 2432.92,2036.23L122.392,2036.23C81.076,2036.23 47.531,2002.35 47.531,1960.63L47.531,125.782C47.531,84.058 81.076,50.184 122.392,50.184L797.312,50.184C798.403,50.184 798.753,50.154 799.471,50.194C799.814,50.213 800.319,50.248 800.885,50.308C802.035,50.431 802.743,50.61 803.365,50.783C803.866,50.923 804.495,51.249 804.861,51.454C805.97,52.076 806.59,52.67 807.083,53.235C807.576,53.8 807.712,53.869 808.797,55.485C809.486,56.512 809.841,57.542 810.188,59.11C810.383,59.995 810.383,60.82 810.398,61.538C810.429,63.147 810.434,64.291 810.434,65.081L810.434,82.965C810.434,92.509 818.107,100.257 827.558,100.257L1781.72,100.257C1791.17,100.257 1798.84,92.509 1798.84,82.965L1798.84,69.018C1798.84,69.018 1798.89,65.969 1798.91,64.919C1798.91,64.271 1799.07,63.566 1799.11,62.944C1799.16,62.345 1799.32,61.94 1799.38,61.346C1799.45,60.742 1799.69,60.134 1799.87,59.587C1800.04,59.057 1800.19,58.746 1800.45,58.256C1800.72,57.76 1800.9,57.249 1801.25,56.799C1801.59,56.352 1801.85,55.865 1802.24,55.463Z" style="fill:rgb(235,232,223);"/><clipPath id="_clip1"><path d="M1802.24,55.463C1802.65,55.044 1803.1,54.459 1803.56,54.064C1804.07,53.632 1804.56,53.089 1805.15,52.709C1805.72,52.343 1806.42,51.771 1807.04,51.502C1807.7,51.218 1808.53,50.951 1809.27,50.767C1810.1,50.56 1811.14,50.337 1812.06,50.259C1812.94,50.184 1814.75,50.184 1814.75,50.184L2432.92,50.184C2474.24,50.184 2507.78,84.058 2507.78,125.782L2507.78,1960.63C2507.78,2002.35 2474.24,2036.23 2432.92,2036.23L122.392,2036.23C81.076,2036.23 47.531,2002.35 47.531,1960.63L47.531,125.782C47.531,84.058 81.076,50.184 122.392,50.184L797.312,50.184C798.403,50.184 798.753,50.154 799.471,50.194C799.814,50.213 800.319,50.248 800.885,50.308C802.035,50.431 802.743,50.61 803.365,50.783C803.866,50.923 804.495,51.249 804.861,51.454C805.97,52.076 806.59,52.67 807.083,53.235C807.576,53.8 807.712,53.869 808.797,55.485C809.486,56.512 809.841,57.542 810.188,59.11C810.383,59.995 810.383,60.82 810.398,61.538C810.429,63.147 810.434,64.291 810.434,65.081L810.434,82.965C810.434,92.509 818.107,100.257 827.558,100.257L1781.72,100.257C1791.17,100.257 1798.84,92.509 1798.84,82.965L1798.84,69.018C1798.84,69.018 1798.89,65.969 1798.91,64.919C1798.91,64.271 1799.07,63.566 1799.11,62.944C1799.16,62.345 1799.32,61.94 1799.38,61.346C1799.45,60.742 1799.69,60.134 1799.87,59.587C1800.04,59.057 1800.19,58.746 1800.45,58.256C1800.72,57.76 1800.9,57.249 1801.25,56.799C1801.59,56.352 1801.85,55.865 1802.24,55.463Z"/></clipPath><g clip-path="url(#_clip1)"><g transform="matrix(1.00084,0,0,1.00818,8.17089,-8.5085)"><path d="M2468.34,121.854L2468.34,1965.83C2468.34,1984.5 2453.18,1999.65 2434.52,1999.65L108.462,1999.65C89.798,1999.65 74.645,1984.5 74.645,1965.83L74.645,121.854C74.645,103.191 89.798,88.038 108.462,88.038L2434.52,88.038C2453.18,88.038 2468.34,103.191 2468.34,121.854Z" style="fill:rgb(97,121,133);"/></g><g transform="matrix(-0.662134,0.558928,-0.546061,-0.718815,4202.35,-1199.67)"><path d="M2475.65,138.011C2492.5,151.003 2495.9,148.386 2501.51,142.78C2501.89,142.403 2503.53,114.088 2502.39,111.812C2497.03,101.09 2498.45,87.592 2493.04,98.095C2491.94,100.229 2485.8,111.081 2484.27,114.195C2479.07,124.755 2475.65,125.447 2475.65,138.011Z" style="fill:rgb(24,43,60);fill-opacity:0.42;"/></g><g transform="matrix(5.24739,2.49301e-15,0,2.28205,-1806.55,1739.38)"><path d="M814.417,121.626C813.56,123.2 813.614,126.271 812.624,126.271L366.731,126.271C365.741,126.271 364.938,124.189 364.938,121.626C364.938,120.511 363.531,117.106 363.783,116.305C364.112,115.263 366.171,116.98 366.731,116.98L810.975,116.98L812.019,116.909C812.217,117.131 816.448,105.591 816.675,104.946C818.61,99.469 819.845,102.311 819.681,109.174C819.65,110.456 816.092,118.547 814.417,121.626Z" style="fill:rgb(24,43,60);fill-opacity:0.75;"/></g><g transform="matrix(0.986621,0,0,3.40348,15.6174,-247.009)"><path d="M2514,108.777L2515.02,652.357C2513.08,654.13 2513.02,652.783 2506.39,652.54L2495.58,654.289C2495.3,655.078 2495.18,651.647 2494.58,650.229L2493.39,103.923C2493.39,103.779 2500.53,106.332 2501,106.332L2506.99,107.546C2515.81,109.002 2514,108.633 2514,108.777Z" style="fill:rgb(24,43,60);fill-opacity:0.69;"/></g><g transform="matrix(0.274822,-0.243611,0.241237,0.277526,720.335,1948.3)"><path d="M2161.12,2082.47L2180.57,2098.29C2176.94,2102.76 2174.95,2108.35 2174.95,2114.11C2174.95,2119.88 2176.94,2125.46 2180.57,2129.93L2161.12,2145.76C2153.85,2136.81 2149.88,2125.64 2149.88,2114.11C2149.88,2102.59 2153.85,2091.41 2161.12,2082.47Z" style="fill:rgb(76,90,101);"/></g><g transform="matrix(-0.301808,-0.304778,0.301808,-0.304778,800.135,3312.05)"><path d="M2161.12,2082.47L2180.57,2098.29C2176.94,2102.76 2174.95,2108.35 2174.95,2114.11C2174.95,2119.88 2176.94,2125.46 2180.57,2129.93L2161.12,2145.76C2153.85,2136.81 2149.88,2125.64 2149.88,2114.11C2149.88,2102.59 2153.85,2091.41 2161.12,2082.47Z" style="fill:rgb(76,90,101);"/></g><g transform="matrix(6.04131e-17,0.996329,-0.986621,6.10076e-17,960.405,-945.375)"><path d="M1035.91,171.721L1035.91,178.151C1032.36,178.151 1029.48,181.03 1029.48,184.581L1023.05,184.581C1023.05,177.479 1028.81,171.721 1035.91,171.721Z" style="fill:rgb(229,229,219);"/></g><g transform="matrix(-0.986621,1.22015e-16,-1.20826e-16,-0.996329,2563.97,1953.57)"><g transform="matrix(1,0,0,1,-317.538,-90.8547)"><g transform="matrix(-1,-1.22465e-16,1.22465e-16,-1,3184.1,2215.25)"><path d="M2101.3,214.152L2105.87,214.152L2105.87,251.26C2105.87,265.475 2094.33,277.015 2080.12,277.015L1102.21,277.015C1087.99,277.015 1076.45,265.475 1076.45,251.26L1076.45,214.152L2086.03,214.152C2086.2,214.497 2086.38,214.846 2086.4,214.867C2086.75,215.214 2087.64,219.571 2088.2,221.06C2088.84,222.765 2089.08,223.649 2089.27,224.359C2088.89,224.442 2088.5,224.531 2088.11,224.629C2087.03,224.9 2087.03,224.879 2086.94,224.922C2087.03,224.879 2087.03,224.9 2088.11,224.629C2088.5,224.531 2088.89,224.442 2089.27,224.359C2089.47,225.079 2089.61,225.619 2090.08,226.654C2089.61,225.619 2089.47,225.079 2089.27,224.359C2095.69,222.97 2100.26,223.502 2101.3,214.152Z"/></g><g transform="matrix(1.09752,0,0,2.02469,231.716,-1799.22)"><path d="M759.213,1870.77L759.213,1859.85C759.213,1848.46 776.279,1839.2 797.299,1839.2L1683.39,1839.2C1704.41,1839.2 1721.48,1848.46 1721.48,1859.85L1721.48,1870.77L1709.33,1870.77L1709.33,1859.85C1709.33,1852.09 1697.71,1845.79 1683.39,1845.79L797.299,1845.79C782.984,1845.79 771.361,1852.09 771.361,1859.85L771.361,1870.77L759.213,1870.77Z" style="fill:rgb(229,229,219);"/></g><g transform="matrix(-6.48615e-17,0.35309,-0.35309,-6.48615e-17,2172.6,1638.18)"><path d="M958.454,204.444L958.454,184.275C977.833,184.275 993.543,168.315 993.543,148.629L1013.4,148.629C1013.4,179.455 988.798,204.444 958.454,204.444Z"/></g><g transform="matrix(0.35309,0,0,0.35309,727.41,1923.67)"><path d="M958.454,204.444L958.454,184.275C977.833,184.275 993.543,168.315 993.543,148.629L1013.4,148.629C1013.4,179.455 988.798,204.444 958.454,204.444Z"/></g></g><g transform="matrix(1,0,0,1.17778,0.407539,-330.174)"><g><rect x="800.616" y="1848.58" width="945.288" height="17.17" style="fill-opacity:0.33;"/></g></g></g><g transform="matrix(0.446136,-0.814145,1.0593,0.591959,-1147.33,3959.5)"><path d="M2475.65,138.011C2492.5,151.003 2493.84,132.196 2499.45,126.59C2499.83,126.213 2503.53,114.088 2502.39,111.812C2497.03,101.09 2494.77,87.651 2489.36,98.153C2488.26,100.287 2482.06,106.969 2480.53,110.083C2475.34,120.643 2475.65,125.447 2475.65,138.011Z" style="fill:rgb(24,43,60);fill-opacity:0.42;"/></g><g transform="matrix(0.986621,0,0,0.996329,810.871,-97.1731)"><path d="M1035.91,171.721L1035.91,178.151C1032.36,178.151 1029.48,181.03 1029.48,184.581L1023.05,184.581C1023.05,177.479 1028.81,171.721 1035.91,171.721Z" style="fill:rgb(229,229,219);"/></g></g><path d="M1802.24,55.463C1802.65,55.044 1803.1,54.459 1803.56,54.064C1804.07,53.632 1804.56,53.089 1805.15,52.709C1805.72,52.343 1806.42,51.771 1807.04,51.502C1807.7,51.218 1808.53,50.951 1809.27,50.767C1810.1,50.56 1811.14,50.337 1812.06,50.259C1812.94,50.184 1814.75,50.184 1814.75,50.184L2432.92,50.184C2474.24,50.184 2507.78,84.058 2507.78,125.782L2507.78,1960.63C2507.78,2002.35 2474.24,2036.23 2432.92,2036.23L122.392,2036.23C81.076,2036.23 47.531,2002.35 47.531,1960.63L47.531,125.782C47.531,84.058 81.076,50.184 122.392,50.184L797.312,50.184C798.403,50.184 798.753,50.154 799.471,50.194C799.814,50.213 800.319,50.248 800.885,50.308C802.035,50.431 802.743,50.61 803.365,50.783C803.866,50.923 804.495,51.249 804.861,51.454C805.97,52.076 806.59,52.67 807.083,53.235C807.576,53.8 807.712,53.869 808.797,55.485C809.486,56.512 809.841,57.542 810.188,59.11C810.383,59.995 810.383,60.82 810.398,61.538C810.429,63.147 810.434,64.291 810.434,65.081L810.434,82.965C810.434,92.509 818.107,100.257 827.558,100.257L1781.72,100.257C1791.17,100.257 1798.84,92.509 1798.84,82.965L1798.84,69.018C1798.84,69.018 1798.89,65.969 1798.91,64.919C1798.91,64.271 1799.07,63.566 1799.11,62.944C1799.16,62.345 1799.32,61.94 1799.38,61.346C1799.45,60.742 1799.69,60.134 1799.87,59.587C1800.04,59.057 1800.19,58.746 1800.45,58.256C1800.72,57.76 1800.9,57.249 1801.25,56.799C1801.59,56.352 1801.85,55.865 1802.24,55.463ZM1811.54,63.607L1811.54,63.605C1811.55,63.584 1811.56,63.563 1811.56,63.541C1811.56,63.563 1811.55,63.585 1811.54,63.607ZM1812.36,62.823C1812.24,62.933 1812.09,63.071 1811.94,63.207C1811.85,63.303 1811.74,63.431 1811.62,63.567C1811.56,63.681 1811.5,63.802 1811.44,63.917L1811.37,64.338C1811.33,64.737 1811.27,65.206 1811.23,65.468C1811.22,66.589 1811.18,68.639 1811.18,69.12L1811.18,82.965C1811.18,99.382 1797.98,112.711 1781.72,112.711L827.558,112.711C811.3,112.711 798.101,99.382 798.101,82.965L798.101,65.081C798.101,64.492 798.099,63.691 798.082,62.625C797.882,62.631 797.649,62.638 797.312,62.638L122.392,62.638C87.882,62.638 59.864,90.932 59.864,125.782L59.864,1960.63C59.864,1995.48 87.882,2023.77 122.392,2023.77L2432.92,2023.77C2467.43,2023.77 2495.45,1995.48 2495.45,1960.63L2495.45,125.782C2495.45,90.932 2467.43,62.638 2432.92,62.638L1814.75,62.638C1814.75,62.638 1813.63,62.623 1813.09,62.669C1812.85,62.689 1812.59,62.761 1812.36,62.823ZM1811.53,63.376C1811.58,63.152 1811.62,62.923 1811.64,62.754L1811.53,63.376Z"/></g><g transform="matrix(1.20173,0,0,1.3173,67.7599,-73.7937)"><path d="M1915.87,195.909L1915.87,1391.41C1915.87,1403.52 1905.1,1413.34 1891.84,1413.34L241.726,1413.34C228.462,1413.34 217.693,1403.52 217.693,1391.41L217.693,195.909C217.693,183.809 228.462,173.985 241.726,173.985L1891.84,173.985C1905.1,173.985 1915.87,183.809 1915.87,195.909Z"/><clipPath id="_clip2"><path d="M1915.87,195.909L1915.87,1391.41C1915.87,1403.52 1905.1,1413.34 1891.84,1413.34L241.726,1413.34C228.462,1413.34 217.693,1403.52 217.693,1391.41L217.693,195.909C217.693,183.809 228.462,173.985 241.726,173.985L1891.84,173.985C1905.1,173.985 1915.87,183.809 1915.87,195.909Z"/></clipPath><g clip-path="url(#_clip2)"><g transform="matrix(0.809417,-8.17764e-17,-4.93025e-16,0.738658,-265.738,-96.9871)"><rect x="613.808" y="384.683" width="2064.86" height="1641.25" style="fill:rgb(2,26,44);"/></g><g transform="matrix(0.808149,-4.97337e-16,-2.76177e-16,0.737006,-271.19,-98.9691)"><path d="M1831.58,880.57L701.567,2010.59L678.917,2033.12L621.601,2033.12L621.601,388.319L2329.87,388.319L2056.9,661.026L2028.75,688.918L1966.71,750.432L1927.42,788.779L1831.58,880.57Z" style="fill:rgb(21,48,69);"/></g><g transform="matrix(-0.00374454,1.63126,-1.78814,-0.00341602,2925.85,-2193.35)"><path d="M1462.47,938.754L2027.59,1503.87L1462.47,1503.87L1462.47,938.754Z" style="fill:rgb(33,61,82);"/></g><g transform="matrix(0.431527,0,0,0.829404,99.7034,57.7595)"><path d="M304.444,138.122L304.444,1623.64C304.444,1628.48 296.173,1632.4 285.985,1632.4C275.798,1632.4 267.527,1628.48 267.527,1623.64L267.527,138.122C267.527,133.287 275.798,129.361 285.985,129.361C296.173,129.361 304.444,133.287 304.444,138.122Z" style="fill:rgb(24,43,60);"/></g><g transform="matrix(3.79154,0,0,1.67883,-1173.12,-24.8255)"><path d="M814.417,121.626C814.417,124.189 813.407,126.271 812.163,126.271L367.192,126.271C365.948,126.271 364.938,124.189 364.938,121.626C364.938,119.062 365.948,116.98 367.192,116.98L812.163,116.98C813.407,116.98 814.417,119.062 814.417,121.626Z" style="fill:rgb(24,43,60);"/></g><g transform="matrix(1.63463,0,0,0.429749,-468.516,724.372)"><path d="M1456.34,1587.12C1456.34,1595.17 1454.45,1601.7 1452.13,1601.7L422.582,1601.7C420.262,1601.7 418.38,1595.17 418.38,1587.12C418.38,1579.08 420.262,1572.54 422.582,1572.54L1452.13,1572.54C1454.45,1572.54 1456.34,1579.08 1456.34,1587.12Z" style="fill:rgb(235,232,223);"/></g><g transform="matrix(0.345403,0,0,0.823326,1810.87,66.5194)"><path d="M304.444,136.425L304.444,1625.34C304.444,1629.24 296.173,1632.4 285.985,1632.4C275.798,1632.4 267.527,1629.24 267.527,1625.34L267.527,136.425C267.527,132.526 275.798,129.361 285.985,129.361C296.173,129.361 304.444,132.526 304.444,136.425Z" style="fill:rgb(235,232,223);"/></g></g></g><g id="button-menu" transform="matrix(1,0,0,1,245.95,9.00659)"><g transform="matrix(0.904361,-3.29882e-16,-4.19801e-17,0.888316,-477.378,2.85325)"><path d="M836.155,2099.62C836.155,2129.43 812.383,2153.64 783.101,2153.64L674.582,2153.64C645.301,2153.64 621.528,2129.43 621.528,2099.62C621.528,2069.82 645.301,2045.61 674.582,2045.61L783.101,2045.61C812.383,2045.61 836.155,2069.82 836.155,2099.62Z" style="fill:rgb(41,51,56);"/></g><g id="button-menu-active" transform="matrix(0.904361,-3.29882e-16,-4.19801e-17,0.888316,-477.378,2.85325)"><path d="M836.155,2099.62C836.155,2129.43 812.383,2153.64 783.101,2153.64L674.582,2153.64C645.301,2153.64 621.528,2129.43 621.528,2099.62C621.528,2069.82 645.301,2045.61 674.582,2045.61L783.101,2045.61C812.383,2045.61 836.155,2069.82 836.155,2099.62ZM808.402,2099.49C808.402,2082.05 794.158,2068.73 777.033,2068.73L680.241,2068.88C663.117,2068.88 649.38,2082.53 649.38,2099.96C649.38,2117.4 664.615,2131.55 681.74,2131.55L777.647,2131.28C794.772,2131.28 808.402,2116.92 808.402,2099.49Z" style="fill:rgb(71,168,255);"/></g><g transform="matrix(-0.529551,0.00518093,-0.00483095,-0.493778,331.721,1994.34)"><g><path d="M187.677,160.673C140.413,163.287 102.041,205.932 102.041,257.853C102.041,309.774 140.413,352.419 187.677,355.033C137.654,354.157 97.042,310.914 97.042,257.853C97.042,204.792 137.654,161.549 187.677,160.673Z" style="fill:rgb(229,229,219);fill-opacity:0.64;"/></g></g><g transform="matrix(-0.374467,-0.374467,0.349171,-0.349171,212.335,2028.31)"><g><path d="M243.068,61.667C215.667,91.238 160.911,148.069 122.452,194.984C106.474,214.477 101.718,242.431 102.041,257.853C103.127,309.774 140.087,347.177 187.894,352.936C142.949,354.99 96.233,311.74 96.993,257.853C97.208,242.609 102.559,211.891 119.576,193.449C167.591,141.414 214.169,89.467 243.068,61.667Z" style="fill:rgb(229,229,219);fill-opacity:0.78;"/></g></g><g transform="matrix(0.529576,1.11022e-16,1.44329e-15,0.493864,32.9942,1740.68)"><g><path d="M187.677,160.673C140.413,163.287 102.041,205.932 102.041,257.853C102.041,309.774 140.413,352.419 187.677,355.033C137.654,354.157 97.042,310.914 97.042,257.853C97.042,204.792 137.654,161.549 187.677,160.673Z" style="fill-opacity:0.45;"/></g></g><g transform="matrix(0.374467,0.374467,-0.349214,0.349214,152.151,1707.7)"><g><path d="M246.861,58.085C221.956,85.032 166.239,145.973 124.339,195.913C108.216,215.131 100.781,242.342 99.869,257.154C96.827,306.513 140.413,352.419 187.677,355.033C137.654,354.157 97.042,310.914 97.042,257.853C97.042,241.118 101.825,212.835 120.528,192.494C165.898,143.151 216.913,89.705 246.861,58.085Z" style="fill-opacity:0.23;"/></g></g><g id="button-menu-body"><g transform="matrix(0.642944,-2.17498e-16,-3.26779e-17,0.641272,-299.322,517.173)"><path d="M859.374,2107.03C859.374,2130.91 840.045,2150.28 816.237,2150.28L680.718,2150.28C656.91,2150.28 637.581,2130.91 637.581,2107.03C637.581,2083.16 656.91,2063.79 680.718,2063.79L816.237,2063.79C840.045,2063.79 859.374,2083.16 859.374,2107.03Z" style="fill:rgb(97,121,133);fill-opacity:0.33;"/></g><g transform="matrix(-0.303535,-2.64619e-17,-8.6191e-16,-0.283066,283.11,1941.48)"><g><path d="M187.677,160.673C145.148,166.27 110.619,207.888 110.619,257.853C110.619,307.818 145.148,349.436 187.677,355.033C137.654,354.157 97.042,310.914 97.042,257.853C97.042,204.792 137.654,161.549 187.677,160.673Z" style="fill-opacity:0.34;"/></g></g><g transform="matrix(-0.200122,-0.22822,0.21283,-0.186626,208.823,1959.44)"><g><path d="M299.529,-26.776C266.129,20.023 163.669,144.687 126.299,200.848C112.15,222.111 107.658,246.044 107.658,257.853C107.658,308.493 143.513,350.466 187.677,355.033C137.654,354.157 97.042,310.914 97.042,257.853C97.042,246.229 100.81,219.294 114.768,200.825C166.01,133.02 257.461,24.807 299.529,-26.776Z" style="fill-opacity:0.34;"/></g></g><g transform="matrix(0.304523,3.70671e-17,8.06992e-16,0.283951,80.6453,1795.11)"><g><path d="M187.677,160.673C145.265,166.344 110.832,207.937 110.832,257.853C110.832,307.769 145.265,349.362 187.677,355.033C137.654,354.157 97.042,310.914 97.042,257.853C97.042,204.792 137.654,161.549 187.677,160.673Z" style="fill:rgb(229,229,219);fill-opacity:0.64;"/></g></g><g transform="matrix(0.20249,0.227446,-0.212082,0.188811,154.48,1776.96)"><g><path d="M310.265,-35.249C289.607,-5.703 185.517,120.055 125.514,198.36C110.121,218.447 106.237,246.928 106.237,257.853C106.237,308.817 142.729,350.96 187.677,355.033C137.654,354.157 97.042,310.914 97.042,257.853C97.042,245.152 97.585,220.905 116.53,197.571C173.795,127.041 286.521,-6.922 310.265,-35.249Z" style="fill:rgb(229,229,219);fill-opacity:0.64;"/></g></g><g transform="matrix(1,0,0,1,-2141.72,-227.479)"><g transform="matrix(40,0,0,40,2270.32,2106.59)"><path d="M0.062,-0.519L0.188,-0.519L0.188,-0.448C0.233,-0.503 0.287,-0.53 0.35,-0.53C0.383,-0.53 0.412,-0.523 0.436,-0.51C0.46,-0.496 0.48,-0.475 0.496,-0.448C0.519,-0.475 0.543,-0.496 0.57,-0.51C0.596,-0.523 0.624,-0.53 0.654,-0.53C0.692,-0.53 0.725,-0.522 0.751,-0.507C0.777,-0.492 0.797,-0.469 0.81,-0.439C0.819,-0.417 0.824,-0.381 0.824,-0.332L0.824,-0L0.687,-0L0.687,-0.296C0.687,-0.348 0.682,-0.381 0.673,-0.396C0.66,-0.416 0.641,-0.425 0.614,-0.425C0.595,-0.425 0.577,-0.419 0.56,-0.408C0.543,-0.396 0.531,-0.379 0.523,-0.356C0.516,-0.333 0.512,-0.298 0.512,-0.249L0.512,-0L0.375,-0L0.375,-0.284C0.375,-0.335 0.373,-0.367 0.368,-0.382C0.363,-0.396 0.355,-0.407 0.345,-0.415C0.335,-0.422 0.321,-0.425 0.303,-0.425C0.282,-0.425 0.263,-0.42 0.246,-0.408C0.229,-0.397 0.217,-0.38 0.209,-0.359C0.202,-0.337 0.199,-0.302 0.199,-0.252L0.199,-0L0.062,-0L0.062,-0.519Z" style="fill:rgb(236,246,255);fill-rule:nonzero;"/></g><g transform="matrix(40,0,0,40,2305.89,2106.59)"><path d="M0.372,-0.165L0.509,-0.142C0.491,-0.092 0.463,-0.054 0.425,-0.027C0.388,-0.001 0.34,0.012 0.283,0.012C0.193,0.012 0.126,-0.018 0.083,-0.077C0.049,-0.124 0.032,-0.183 0.032,-0.255C0.032,-0.341 0.054,-0.409 0.099,-0.457C0.144,-0.506 0.201,-0.53 0.27,-0.53C0.347,-0.53 0.408,-0.505 0.452,-0.454C0.497,-0.403 0.518,-0.325 0.516,-0.22L0.172,-0.22C0.173,-0.179 0.184,-0.147 0.206,-0.125C0.227,-0.102 0.253,-0.091 0.285,-0.091C0.306,-0.091 0.324,-0.097 0.339,-0.108C0.354,-0.12 0.365,-0.139 0.372,-0.165ZM0.38,-0.304C0.379,-0.343 0.369,-0.374 0.349,-0.394C0.33,-0.415 0.306,-0.425 0.278,-0.425C0.248,-0.425 0.223,-0.414 0.204,-0.393C0.184,-0.371 0.174,-0.341 0.175,-0.304L0.38,-0.304Z" style="fill:rgb(236,246,255);fill-rule:nonzero;"/></g><g transform="matrix(40,0,0,40,2328.13,2106.59)"><path d="M0.543,-0L0.406,-0L0.406,-0.265C0.406,-0.321 0.403,-0.357 0.397,-0.373C0.392,-0.39 0.382,-0.403 0.369,-0.412C0.356,-0.421 0.34,-0.425 0.321,-0.425C0.298,-0.425 0.276,-0.419 0.257,-0.406C0.238,-0.393 0.225,-0.375 0.218,-0.354C0.211,-0.333 0.208,-0.293 0.208,-0.235L0.208,-0L0.071,-0L0.071,-0.519L0.198,-0.519L0.198,-0.442C0.243,-0.501 0.3,-0.53 0.369,-0.53C0.399,-0.53 0.427,-0.525 0.452,-0.514C0.477,-0.503 0.496,-0.489 0.509,-0.472C0.522,-0.455 0.531,-0.436 0.536,-0.415C0.541,-0.393 0.543,-0.362 0.543,-0.322L0.543,-0Z" style="fill:rgb(236,246,255);fill-rule:nonzero;"/></g><g transform="matrix(40,0,0,40,2352.57,2106.59)"><path d="M0.413,-0L0.413,-0.078C0.394,-0.05 0.369,-0.028 0.338,-0.012C0.308,0.004 0.275,0.012 0.241,0.012C0.206,0.012 0.175,0.004 0.147,-0.011C0.12,-0.027 0.1,-0.048 0.087,-0.076C0.075,-0.103 0.069,-0.142 0.069,-0.19L0.069,-0.519L0.206,-0.519L0.206,-0.28C0.206,-0.207 0.208,-0.163 0.213,-0.146C0.219,-0.13 0.228,-0.117 0.241,-0.107C0.255,-0.097 0.271,-0.093 0.292,-0.093C0.315,-0.093 0.336,-0.099 0.355,-0.112C0.374,-0.125 0.386,-0.141 0.393,-0.16C0.4,-0.179 0.403,-0.226 0.403,-0.3L0.403,-0.519L0.541,-0.519L0.541,-0L0.413,-0Z" style="fill:rgb(236,246,255);fill-rule:nonzero;"/></g></g></g></g><g id="button-down" transform="matrix(0.982906,0,0,0.982906,-1922.55,-148.927)"><circle cx="2140.7" cy="1871.67" r="98.726" style="fill-opacity:0.58;"/><clipPath id="_clip3"><circle cx="2140.7" cy="1871.67" r="98.726"/></clipPath><g clip-path="url(#_clip3)"><g id="button-down-body" transform="matrix(1.24594,0,0,1.24594,-574.879,-451.502)"><circle cx="2179.51" cy="1864.92" r="58.223" style="fill:rgb(97,121,133);fill-opacity:0.33;"/><clipPath id="_clip4"><circle cx="2179.51" cy="1864.92" r="58.223"/></clipPath><g clip-path="url(#_clip4)"><g transform="matrix(-1.04713,-1.28236e-16,1.00001e-16,-0.816568,2393.95,3288.09)"><path d="M205.964,1695.5L242.687,1772.4L169.242,1772.4L205.964,1695.5ZM205.964,1720.23L187.221,1759.48L224.708,1759.48L205.964,1720.23Z" style="fill:rgb(236,246,255);"/></g><g transform="matrix(0.515784,0.403452,-0.370571,0.473749,2177.55,1666.57)"><g><path d="M187.677,160.673C141.968,164.267 104.858,206.575 104.858,257.853C104.858,309.132 141.968,351.439 187.677,355.033C137.654,354.157 97.042,310.914 97.042,257.853C97.042,204.792 137.654,161.549 187.677,160.673Z" style="fill:rgb(229,229,219);fill-opacity:0.42;"/></g></g><g transform="matrix(0.00253279,0.654828,-0.601461,0.00232637,2333.41,1740.95)"><g><path d="M187.677,160.673C141.968,164.267 104.858,206.575 104.858,257.853C104.858,309.132 141.968,351.439 187.677,355.033C137.654,354.157 97.042,310.914 97.042,257.853C97.042,204.792 137.654,161.549 187.677,160.673Z" style="fill:rgb(229,229,219);fill-opacity:0.42;"/></g></g><g transform="matrix(0.652803,-0.0515231,0.0473241,0.599601,2044.08,1719.51)"><g><path d="M187.677,160.673C141.968,164.267 104.858,206.575 104.858,257.853C104.858,309.132 141.968,351.439 187.677,355.033C137.654,354.157 97.042,310.914 97.042,257.853C97.042,204.792 137.654,161.549 187.677,160.673Z" style="fill:rgb(229,229,219);fill-opacity:0.42;"/></g></g><g transform="matrix(-0.526533,-0.364033,0.342049,-0.494736,2192.13,2062)"><g><path d="M187.677,160.673C141.799,164.16 104.551,206.505 104.551,257.853C104.551,309.202 141.799,351.546 187.677,355.033C137.654,354.157 97.042,310.914 97.042,257.853C97.042,204.792 137.654,161.549 187.677,160.673Z" style="fill:rgb(30,42,50);fill-opacity:0.79;"/></g></g></g></g><g id="button-down-active" transform="matrix(0.95626,1.04129e-16,0,0.95626,1945.7,1605.92)"><path d="M203.769,175.207C260.766,175.207 307.04,221.481 307.04,278.477C307.04,335.474 260.766,381.748 203.769,381.748C146.773,381.748 100.499,335.474 100.499,278.477C100.499,221.481 146.773,175.207 203.769,175.207ZM203.769,201.024C246.517,201.024 281.222,235.73 281.222,278.477C281.222,321.225 246.517,355.93 203.769,355.93C161.022,355.93 126.316,321.225 126.316,278.477C126.316,235.73 161.022,201.024 203.769,201.024Z" style="fill:rgb(71,168,255);"/></g><g transform="matrix(-1.09281,0.0106917,-0.0100383,-1.02603,2348.12,2134.95)"><g><path d="M187.677,160.673C140.413,163.287 102.041,205.932 102.041,257.853C102.041,309.774 140.413,352.419 187.677,355.033C137.654,354.157 97.042,310.914 97.042,257.853C97.042,204.792 137.654,161.549 187.677,160.673Z" style="fill:rgb(229,229,219);fill-opacity:0.64;"/></g></g><g transform="matrix(-0.49283,-0.975436,0.915826,-0.462712,1996.78,2174.77)"><g><path d="M187.677,160.673C140.413,163.287 102.041,205.932 102.041,257.853C102.041,309.774 140.413,352.419 187.677,355.033C137.654,354.157 97.042,310.914 97.042,257.853C97.042,204.792 137.654,161.549 187.677,160.673Z" style="fill:rgb(229,229,219);fill-opacity:0.64;"/></g></g><g transform="matrix(0.974506,0.494667,-0.464437,0.914952,2077.3,1543.63)"><g><path d="M187.677,160.673C140.413,163.287 102.041,205.932 102.041,257.853C102.041,309.774 140.413,352.419 187.677,355.033C137.654,354.157 97.042,310.914 97.042,257.853C97.042,204.792 137.654,161.549 187.677,160.673Z" style="fill-opacity:0.45;"/></g></g></g></g><g id="button-up" transform="matrix(0.982906,0,0,0.982906,-1922.55,-367.766)"><circle cx="2140.7" cy="1871.67" r="98.726" style="fill-opacity:0.58;"/><clipPath id="_clip5"><circle cx="2140.7" cy="1871.67" r="98.726"/></clipPath><g clip-path="url(#_clip5)"><g id="button-up-body" transform="matrix(1.24594,0,0,1.24594,-574.879,-451.502)"><circle cx="2179.51" cy="1864.92" r="58.223" style="fill:rgb(97,121,133);fill-opacity:0.33;"/><clipPath id="_clip6"><circle cx="2179.51" cy="1864.92" r="58.223"/></clipPath><g clip-path="url(#_clip6)"><g transform="matrix(1.04713,0,0,0.816568,1962.61,439.988)"><path d="M205.964,1695.5L242.687,1772.4L169.242,1772.4L205.964,1695.5ZM205.964,1720.23L187.221,1759.48L224.708,1759.48L205.964,1720.23Z" style="fill:rgb(236,246,255);"/></g><g transform="matrix(0.515784,0.403452,-0.370571,0.473749,2177.55,1666.57)"><g><path d="M187.677,160.673C141.968,164.267 104.858,206.575 104.858,257.853C104.858,309.132 141.968,351.439 187.677,355.033C137.654,354.157 97.042,310.914 97.042,257.853C97.042,204.792 137.654,161.549 187.677,160.673Z" style="fill:rgb(229,229,219);fill-opacity:0.42;"/></g></g><g transform="matrix(0.00253279,0.654828,-0.601461,0.00232637,2333.41,1740.95)"><g><path d="M187.677,160.673C141.968,164.267 104.858,206.575 104.858,257.853C104.858,309.132 141.968,351.439 187.677,355.033C137.654,354.157 97.042,310.914 97.042,257.853C97.042,204.792 137.654,161.549 187.677,160.673Z" style="fill:rgb(229,229,219);fill-opacity:0.42;"/></g></g><g transform="matrix(0.652803,-0.0515231,0.0473241,0.599601,2044.08,1719.51)"><g><path d="M187.677,160.673C141.968,164.267 104.858,206.575 104.858,257.853C104.858,309.132 141.968,351.439 187.677,355.033C137.654,354.157 97.042,310.914 97.042,257.853C97.042,204.792 137.654,161.549 187.677,160.673Z" style="fill:rgb(229,229,219);fill-opacity:0.42;"/></g></g><g transform="matrix(-0.526533,-0.364033,0.342049,-0.494736,2192.13,2062)"><g><path d="M187.677,160.673C141.799,164.16 104.551,206.505 104.551,257.853C104.551,309.202 141.799,351.546 187.677,355.033C137.654,354.157 97.042,310.914 97.042,257.853C97.042,204.792 137.654,161.549 187.677,160.673Z" style="fill:rgb(30,42,50);fill-opacity:0.79;"/></g></g></g></g><g id="button-up-active" transform="matrix(0.95626,1.04129e-16,0,0.95626,1945.7,1605.92)"><path d="M203.769,175.207C260.766,175.207 307.04,221.481 307.04,278.477C307.04,335.474 260.766,381.748 203.769,381.748C146.773,381.748 100.499,335.474 100.499,278.477C100.499,221.481 146.773,175.207 203.769,175.207ZM203.769,201.024C246.517,201.024 281.222,235.73 281.222,278.477C281.222,321.225 246.517,355.93 203.769,355.93C161.022,355.93 126.316,321.225 126.316,278.477C126.316,235.73 161.022,201.024 203.769,201.024Z" style="fill:rgb(71,168,255);"/></g><g transform="matrix(-1.09281,0.0106917,-0.0100383,-1.02603,2348.12,2134.95)"><g><path d="M187.677,160.673C140.413,163.287 102.041,205.932 102.041,257.853C102.041,309.774 140.413,352.419 187.677,355.033C137.654,354.157 97.042,310.914 97.042,257.853C97.042,204.792 137.654,161.549 187.677,160.673Z" style="fill:rgb(229,229,219);fill-opacity:0.64;"/></g></g><g transform="matrix(-0.49283,-0.975436,0.915826,-0.462712,1996.78,2174.77)"><g><path d="M187.677,160.673C140.413,163.287 102.041,205.932 102.041,257.853C102.041,309.774 140.413,352.419 187.677,355.033C137.654,354.157 97.042,310.914 97.042,257.853C97.042,204.792 137.654,161.549 187.677,160.673Z" style="fill:rgb(229,229,219);fill-opacity:0.64;"/></g></g><g transform="matrix(0.974506,0.494667,-0.464437,0.914952,2077.3,1543.63)"><g><path d="M187.677,160.673C140.413,163.287 102.041,205.932 102.041,257.853C102.041,309.774 140.413,352.419 187.677,355.033C137.654,354.157 97.042,310.914 97.042,257.853C97.042,204.792 137.654,161.549 187.677,160.673Z" style="fill-opacity:0.45;"/></g></g></g></g><g id="button-right" transform="matrix(0.982906,0,0,0.982906,-1922.55,-586.605)"><circle cx="2140.7" cy="1871.67" r="98.726" style="fill-opacity:0.58;"/><clipPath id="_clip7"><circle cx="2140.7" cy="1871.67" r="98.726"/></clipPath><g clip-path="url(#_clip7)"><g id="button-right-body" transform="matrix(1.24594,0,0,1.24594,-574.879,-451.502)"><circle cx="2179.51" cy="1864.92" r="58.223" style="fill:rgb(97,121,133);fill-opacity:0.33;"/><clipPath id="_clip8"><circle cx="2179.51" cy="1864.92" r="58.223"/></clipPath><g clip-path="url(#_clip8)"><g transform="matrix(6.41181e-17,1.04713,-0.816568,5.00004e-17,3604.78,1650)"><path d="M205.964,1695.5L242.687,1772.4L169.242,1772.4L205.964,1695.5ZM205.964,1720.23L187.221,1759.48L224.708,1759.48L205.964,1720.23Z" style="fill:rgb(236,246,255);"/></g><g transform="matrix(0.515784,0.403452,-0.370571,0.473749,2177.55,1666.57)"><g><path d="M187.677,160.673C141.968,164.267 104.858,206.575 104.858,257.853C104.858,309.132 141.968,351.439 187.677,355.033C137.654,354.157 97.042,310.914 97.042,257.853C97.042,204.792 137.654,161.549 187.677,160.673Z" style="fill:rgb(229,229,219);fill-opacity:0.42;"/></g></g><g transform="matrix(0.00253279,0.654828,-0.601461,0.00232637,2333.41,1740.95)"><g><path d="M187.677,160.673C141.968,164.267 104.858,206.575 104.858,257.853C104.858,309.132 141.968,351.439 187.677,355.033C137.654,354.157 97.042,310.914 97.042,257.853C97.042,204.792 137.654,161.549 187.677,160.673Z" style="fill:rgb(229,229,219);fill-opacity:0.42;"/></g></g><g transform="matrix(0.652803,-0.0515231,0.0473241,0.599601,2044.08,1719.51)"><g><path d="M187.677,160.673C141.968,164.267 104.858,206.575 104.858,257.853C104.858,309.132 141.968,351.439 187.677,355.033C137.654,354.157 97.042,310.914 97.042,257.853C97.042,204.792 137.654,161.549 187.677,160.673Z" style="fill:rgb(229,229,219);fill-opacity:0.42;"/></g></g><g transform="matrix(-0.526533,-0.364033,0.342049,-0.494736,2192.13,2062)"><g><path d="M187.677,160.673C141.799,164.16 104.551,206.505 104.551,257.853C104.551,309.202 141.799,351.546 187.677,355.033C137.654,354.157 97.042,310.914 97.042,257.853C97.042,204.792 137.654,161.549 187.677,160.673Z" style="fill:rgb(30,42,50);fill-opacity:0.79;"/></g></g></g></g><g id="button-right-active" transform="matrix(0.95626,1.04129e-16,0,0.95626,1945.7,1605.92)"><path d="M203.769,175.207C260.766,175.207 307.04,221.481 307.04,278.477C307.04,335.474 260.766,381.748 203.769,381.748C146.773,381.748 100.499,335.474 100.499,278.477C100.499,221.481 146.773,175.207 203.769,175.207ZM203.769,201.024C246.517,201.024 281.222,235.73 281.222,278.477C281.222,321.225 246.517,355.93 203.769,355.93C161.022,355.93 126.316,321.225 126.316,278.477C126.316,235.73 161.022,201.024 203.769,201.024Z" style="fill:rgb(71,168,255);"/></g><g transform="matrix(-1.09281,0.0106917,-0.0100383,-1.02603,2348.12,2134.95)"><g><path d="M187.677,160.673C140.413,163.287 102.041,205.932 102.041,257.853C102.041,309.774 140.413,352.419 187.677,355.033C137.654,354.157 97.042,310.914 97.042,257.853C97.042,204.792 137.654,161.549 187.677,160.673Z" style="fill:rgb(229,229,219);fill-opacity:0.64;"/></g></g><g transform="matrix(-0.49283,-0.975436,0.915826,-0.462712,1996.78,2174.77)"><g><path d="M187.677,160.673C140.413,163.287 102.041,205.932 102.041,257.853C102.041,309.774 140.413,352.419 187.677,355.033C137.654,354.157 97.042,310.914 97.042,257.853C97.042,204.792 137.654,161.549 187.677,160.673Z" style="fill:rgb(229,229,219);fill-opacity:0.64;"/></g></g><g transform="matrix(0.974506,0.494667,-0.464437,0.914952,2077.3,1543.63)"><g><path d="M187.677,160.673C140.413,163.287 102.041,205.932 102.041,257.853C102.041,309.774 140.413,352.419 187.677,355.033C137.654,354.157 97.042,310.914 97.042,257.853C97.042,204.792 137.654,161.549 187.677,160.673Z" style="fill-opacity:0.45;"/></g></g></g></g><g id="button-left" transform="matrix(0.982906,0,0,0.982906,-1922.55,-805.444)"><circle cx="2140.7" cy="1871.67" r="98.726" style="fill-opacity:0.58;"/><clipPath id="_clip9"><circle cx="2140.7" cy="1871.67" r="98.726"/></clipPath><g clip-path="url(#_clip9)"><g id="button-left-body" transform="matrix(1.24594,0,0,1.24594,-574.888,-451.502)"><circle cx="2179.51" cy="1864.92" r="58.223" style="fill:rgb(97,121,133);fill-opacity:0.33;"/><clipPath id="_clip10"><circle cx="2179.51" cy="1864.92" r="58.223"/></clipPath><g clip-path="url(#_clip10)"><g transform="matrix(6.41181e-17,-1.04713,0.816568,5.00004e-17,753.409,2081.34)"><path d="M205.964,1695.5L242.687,1772.4L169.242,1772.4L205.964,1695.5ZM205.964,1717.76C205.964,1717.76 185.423,1760.77 185.423,1760.77C185.423,1760.77 226.506,1760.77 226.506,1760.77L205.964,1717.76Z" style="fill:rgb(236,246,255);"/></g><g transform="matrix(0.515784,0.403452,-0.370571,0.473749,2177.55,1666.57)"><g><path d="M187.677,160.673C141.968,164.267 104.858,206.575 104.858,257.853C104.858,309.132 141.968,351.439 187.677,355.033C137.654,354.157 97.042,310.914 97.042,257.853C97.042,204.792 137.654,161.549 187.677,160.673Z" style="fill:rgb(229,229,219);fill-opacity:0.42;"/></g></g><g transform="matrix(0.00253279,0.654828,-0.601461,0.00232637,2333.41,1740.95)"><g><path d="M187.677,160.673C141.968,164.267 104.858,206.575 104.858,257.853C104.858,309.132 141.968,351.439 187.677,355.033C137.654,354.157 97.042,310.914 97.042,257.853C97.042,204.792 137.654,161.549 187.677,160.673Z" style="fill:rgb(229,229,219);fill-opacity:0.42;"/></g></g><g transform="matrix(0.652803,-0.0515231,0.0473241,0.599601,2044.08,1719.51)"><g><path d="M187.677,160.673C141.968,164.267 104.858,206.575 104.858,257.853C104.858,309.132 141.968,351.439 187.677,355.033C137.654,354.157 97.042,310.914 97.042,257.853C97.042,204.792 137.654,161.549 187.677,160.673Z" style="fill:rgb(229,229,219);fill-opacity:0.42;"/></g></g><g transform="matrix(-0.526533,-0.364033,0.342049,-0.494736,2192.13,2062)"><g><path d="M187.677,160.673C141.799,164.16 104.551,206.505 104.551,257.853C104.551,309.202 141.799,351.546 187.677,355.033C137.654,354.157 97.042,310.914 97.042,257.853C97.042,204.792 137.654,161.549 187.677,160.673Z" style="fill:rgb(30,42,50);fill-opacity:0.79;"/></g></g></g></g><g id="button-left-active" transform="matrix(0.95626,1.04129e-16,0,0.95626,1945.7,1605.92)"><path d="M203.769,175.207C260.766,175.207 307.04,221.481 307.04,278.477C307.04,335.474 260.766,381.748 203.769,381.748C146.773,381.748 100.499,335.474 100.499,278.477C100.499,221.481 146.773,175.207 203.769,175.207ZM203.769,201.024C246.517,201.024 281.222,235.73 281.222,278.477C281.222,321.225 246.517,355.93 203.769,355.93C161.022,355.93 126.316,321.225 126.316,278.477C126.316,235.73 161.022,201.024 203.769,201.024Z" style="fill:rgb(71,168,255);"/></g><g transform="matrix(-1.09281,0.0106917,-0.0100383,-1.02603,2348.12,2134.95)"><g><path d="M187.677,160.673C140.413,163.287 102.041,205.932 102.041,257.853C102.041,309.774 140.413,352.419 187.677,355.033C137.654,354.157 97.042,310.914 97.042,257.853C97.042,204.792 137.654,161.549 187.677,160.673Z" style="fill:rgb(229,229,219);fill-opacity:0.64;"/></g></g><g transform="matrix(-0.49283,-0.975436,0.915826,-0.462712,1996.78,2174.77)"><g><path d="M187.677,160.673C140.413,163.287 102.041,205.932 102.041,257.853C102.041,309.774 140.413,352.419 187.677,355.033C137.654,354.157 97.042,310.914 97.042,257.853C97.042,204.792 137.654,161.549 187.677,160.673Z" style="fill:rgb(229,229,219);fill-opacity:0.64;"/></g></g><g transform="matrix(0.974506,0.494667,-0.464437,0.914952,2077.3,1543.63)"><g><path d="M187.677,160.673C140.413,163.287 102.041,205.932 102.041,257.853C102.041,309.774 140.413,352.419 187.677,355.033C137.654,354.157 97.042,310.914 97.042,257.853C97.042,204.792 137.654,161.549 187.677,160.673Z" style="fill-opacity:0.45;"/></g></g></g></g><g id="button-b" transform="matrix(0.982906,0,0,0.982906,-1922.55,-1090.27)"><circle cx="2140.7" cy="1871.67" r="98.726" style="fill-opacity:0.58;"/><clipPath id="_clip11"><circle cx="2140.7" cy="1871.67" r="98.726"/></clipPath><g clip-path="url(#_clip11)"><g id="button-b-body" transform="matrix(1.24594,0,0,1.24594,-574.879,-451.502)"><circle cx="2179.51" cy="1864.92" r="58.223" style="fill:rgb(97,121,133);fill-opacity:0.33;"/><clipPath id="_clip12"><circle cx="2179.51" cy="1864.92" r="58.223"/></clipPath><g clip-path="url(#_clip12)"><g transform="matrix(0.795243,0,0,0.795243,471.473,395.789)"><g transform="matrix(120.833,0,0,120.833,2105.74,1886.92)"><path d="M0.073,-0.716L0.359,-0.716C0.416,-0.716 0.458,-0.713 0.486,-0.708C0.514,-0.704 0.539,-0.694 0.561,-0.679C0.583,-0.664 0.601,-0.644 0.616,-0.619C0.63,-0.594 0.638,-0.567 0.638,-0.536C0.638,-0.502 0.629,-0.471 0.61,-0.443C0.592,-0.415 0.568,-0.394 0.537,-0.38C0.581,-0.368 0.614,-0.346 0.638,-0.315C0.661,-0.285 0.673,-0.249 0.673,-0.208C0.673,-0.175 0.665,-0.143 0.65,-0.112C0.635,-0.082 0.614,-0.057 0.588,-0.039C0.562,-0.02 0.53,-0.009 0.491,-0.005C0.467,-0.002 0.409,-0.001 0.317,-0L0.073,-0L0.073,-0.716ZM0.218,-0.597L0.218,-0.431L0.313,-0.431C0.369,-0.431 0.404,-0.432 0.417,-0.434C0.442,-0.437 0.462,-0.445 0.476,-0.459C0.49,-0.473 0.497,-0.492 0.497,-0.515C0.497,-0.537 0.491,-0.555 0.479,-0.569C0.466,-0.583 0.448,-0.591 0.424,-0.594C0.41,-0.596 0.369,-0.597 0.301,-0.597L0.218,-0.597ZM0.218,-0.312L0.218,-0.121L0.352,-0.121C0.404,-0.121 0.437,-0.122 0.451,-0.125C0.472,-0.129 0.49,-0.138 0.503,-0.153C0.517,-0.169 0.523,-0.189 0.523,-0.214C0.523,-0.236 0.518,-0.254 0.508,-0.269C0.497,-0.284 0.482,-0.295 0.462,-0.302C0.443,-0.309 0.4,-0.312 0.334,-0.312L0.218,-0.312Z" style="fill:rgb(236,246,255);fill-rule:nonzero;"/></g></g><g transform="matrix(0.515784,0.403452,-0.370571,0.473749,2177.55,1666.57)"><g><path d="M187.677,160.673C141.968,164.267 104.858,206.575 104.858,257.853C104.858,309.132 141.968,351.439 187.677,355.033C137.654,354.157 97.042,310.914 97.042,257.853C97.042,204.792 137.654,161.549 187.677,160.673Z" style="fill:rgb(229,229,219);fill-opacity:0.42;"/></g></g><g transform="matrix(0.00253279,0.654828,-0.601461,0.00232637,2333.41,1740.95)"><g><path d="M187.677,160.673C141.968,164.267 104.858,206.575 104.858,257.853C104.858,309.132 141.968,351.439 187.677,355.033C137.654,354.157 97.042,310.914 97.042,257.853C97.042,204.792 137.654,161.549 187.677,160.673Z" style="fill:rgb(229,229,219);fill-opacity:0.42;"/></g></g><g transform="matrix(0.652803,-0.0515231,0.0473241,0.599601,2044.08,1719.51)"><g><path d="M187.677,160.673C141.968,164.267 104.858,206.575 104.858,257.853C104.858,309.132 141.968,351.439 187.677,355.033C137.654,354.157 97.042,310.914 97.042,257.853C97.042,204.792 137.654,161.549 187.677,160.673Z" style="fill:rgb(229,229,219);fill-opacity:0.42;"/></g></g><g transform="matrix(-0.526533,-0.364033,0.342049,-0.494736,2192.13,2062)"><g><path d="M187.677,160.673C141.799,164.16 104.551,206.505 104.551,257.853C104.551,309.202 141.799,351.546 187.677,355.033C137.654,354.157 97.042,310.914 97.042,257.853C97.042,204.792 137.654,161.549 187.677,160.673Z" style="fill:rgb(30,42,50);fill-opacity:0.79;"/></g></g></g></g><g id="button-b-active" transform="matrix(0.95626,1.04129e-16,0,0.95626,1945.7,1605.92)"><path d="M203.769,175.207C260.766,175.207 307.04,221.481 307.04,278.477C307.04,335.474 260.766,381.748 203.769,381.748C146.773,381.748 100.499,335.474 100.499,278.477C100.499,221.481 146.773,175.207 203.769,175.207ZM203.769,201.024C246.517,201.024 281.222,235.73 281.222,278.477C281.222,321.225 246.517,355.93 203.769,355.93C161.022,355.93 126.316,321.225 126.316,278.477C126.316,235.73 161.022,201.024 203.769,201.024Z" style="fill:rgb(71,168,255);"/></g><g transform="matrix(-1.09281,0.0106917,-0.0100383,-1.02603,2348.12,2134.95)"><g><path d="M187.677,160.673C140.413,163.287 102.041,205.932 102.041,257.853C102.041,309.774 140.413,352.419 187.677,355.033C137.654,354.157 97.042,310.914 97.042,257.853C97.042,204.792 137.654,161.549 187.677,160.673Z" style="fill:rgb(229,229,219);fill-opacity:0.64;"/></g></g><g transform="matrix(-0.49283,-0.975436,0.915826,-0.462712,1996.78,2174.77)"><g><path d="M187.677,160.673C140.413,163.287 102.041,205.932 102.041,257.853C102.041,309.774 140.413,352.419 187.677,355.033C137.654,354.157 97.042,310.914 97.042,257.853C97.042,204.792 137.654,161.549 187.677,160.673Z" style="fill:rgb(229,229,219);fill-opacity:0.64;"/></g></g><g transform="matrix(0.974506,0.494667,-0.464437,0.914952,2077.3,1543.63)"><g><path d="M187.677,160.673C140.413,163.287 102.041,205.932 102.041,257.853C102.041,309.774 140.413,352.419 187.677,355.033C137.654,354.157 97.042,310.914 97.042,257.853C97.042,204.792 137.654,161.549 187.677,160.673Z" style="fill-opacity:0.45;"/></g></g></g></g><g id="button-a" transform="matrix(0.982906,0,0,0.982906,-1922.55,-1306.77)"><circle cx="2140.7" cy="1871.67" r="98.726" style="fill-opacity:0.58;"/><clipPath id="_clip13"><circle cx="2140.7" cy="1871.67" r="98.726"/></clipPath><g clip-path="url(#_clip13)"><g id="button-a-body" transform="matrix(1.24594,0,0,1.24594,-574.879,-451.502)"><circle cx="2179.51" cy="1864.92" r="58.223" style="fill:rgb(97,121,133);fill-opacity:0.33;"/><clipPath id="_clip14"><circle cx="2179.51" cy="1864.92" r="58.223"/></clipPath><g clip-path="url(#_clip14)"><g transform="matrix(0.795243,0,0,0.795243,469.84,394.156)"><g transform="matrix(120.833,0,0,120.833,2105.74,1886.92)"><path d="M0.718,-0L0.561,-0L0.499,-0.163L0.212,-0.163L0.153,-0L0,-0L0.279,-0.716L0.432,-0.716L0.718,-0ZM0.452,-0.283L0.354,-0.549L0.257,-0.283L0.452,-0.283Z" style="fill:rgb(236,246,255);fill-rule:nonzero;"/></g></g><g transform="matrix(0.515784,0.403452,-0.370571,0.473749,2177.55,1666.57)"><g><path d="M187.677,160.673C141.968,164.267 104.858,206.575 104.858,257.853C104.858,309.132 141.968,351.439 187.677,355.033C137.654,354.157 97.042,310.914 97.042,257.853C97.042,204.792 137.654,161.549 187.677,160.673Z" style="fill:rgb(229,229,219);fill-opacity:0.42;"/></g></g><g transform="matrix(0.00253279,0.654828,-0.601461,0.00232637,2333.41,1740.95)"><g><path d="M187.677,160.673C141.968,164.267 104.858,206.575 104.858,257.853C104.858,309.132 141.968,351.439 187.677,355.033C137.654,354.157 97.042,310.914 97.042,257.853C97.042,204.792 137.654,161.549 187.677,160.673Z" style="fill:rgb(229,229,219);fill-opacity:0.42;"/></g></g><g transform="matrix(0.652803,-0.0515231,0.0473241,0.599601,2044.08,1719.51)"><g><path d="M187.677,160.673C141.968,164.267 104.858,206.575 104.858,257.853C104.858,309.132 141.968,351.439 187.677,355.033C137.654,354.157 97.042,310.914 97.042,257.853C97.042,204.792 137.654,161.549 187.677,160.673Z" style="fill:rgb(229,229,219);fill-opacity:0.42;"/></g></g><g transform="matrix(-0.526533,-0.364033,0.342049,-0.494736,2192.13,2062)"><g><path d="M187.677,160.673C141.799,164.16 104.551,206.505 104.551,257.853C104.551,309.202 141.799,351.546 187.677,355.033C137.654,354.157 97.042,310.914 97.042,257.853C97.042,204.792 137.654,161.549 187.677,160.673Z" style="fill:rgb(30,42,50);fill-opacity:0.79;"/></g></g></g></g><g id="button-a-active" transform="matrix(0.95626,1.04129e-16,0,0.95626,1945.7,1605.92)"><path d="M203.769,175.207C260.766,175.207 307.04,221.481 307.04,278.477C307.04,335.474 260.766,381.748 203.769,381.748C146.773,381.748 100.499,335.474 100.499,278.477C100.499,221.481 146.773,175.207 203.769,175.207ZM203.769,201.024C246.517,201.024 281.222,235.73 281.222,278.477C281.222,321.225 246.517,355.93 203.769,355.93C161.022,355.93 126.316,321.225 126.316,278.477C126.316,235.73 161.022,201.024 203.769,201.024Z" style="fill:rgb(71,168,255);"/></g><g transform="matrix(-1.09281,0.0106917,-0.0100383,-1.02603,2348.12,2134.95)"><g><path d="M187.677,160.673C140.413,163.287 102.041,205.932 102.041,257.853C102.041,309.774 140.413,352.419 187.677,355.033C137.654,354.157 97.042,310.914 97.042,257.853C97.042,204.792 137.654,161.549 187.677,160.673Z" style="fill:rgb(229,229,219);fill-opacity:0.64;"/></g></g><g transform="matrix(-0.49283,-0.975436,0.915826,-0.462712,1996.78,2174.77)"><g><path d="M187.677,160.673C140.413,163.287 102.041,205.932 102.041,257.853C102.041,309.774 140.413,352.419 187.677,355.033C137.654,354.157 97.042,310.914 97.042,257.853C97.042,204.792 137.654,161.549 187.677,160.673Z" style="fill:rgb(229,229,219);fill-opacity:0.64;"/></g></g><g transform="matrix(0.974506,0.494667,-0.464437,0.914952,2077.3,1543.63)"><g><path d="M187.677,160.673C140.413,163.287 102.041,205.932 102.041,257.853C102.041,309.774 140.413,352.419 187.677,355.033C137.654,354.157 97.042,310.914 97.042,257.853C97.042,204.792 137.654,161.549 187.677,160.673Z" style="fill-opacity:0.45;"/></g></g></g></g><g id="button-power" transform="matrix(0.982906,0,0,0.982906,-1922.55,-1590.5)"><circle cx="2140.7" cy="1871.67" r="98.726" style="fill-opacity:0.58;"/><clipPath id="_clip15"><circle cx="2140.7" cy="1871.67" r="98.726"/></clipPath><g clip-path="url(#_clip15)"><g id="button-power-body" transform="matrix(1.24594,0,0,1.24594,-574.879,-451.502)"><circle cx="2179.51" cy="1864.92" r="58.223" style="fill:rgb(97,121,133);fill-opacity:0.33;"/><clipPath id="_clip16"><circle cx="2179.51" cy="1864.92" r="58.223"/></clipPath><g clip-path="url(#_clip16)"><g transform="matrix(0.816568,0,0,0.816568,1789.59,1486.4)"><path d="M507.139,429.676L507.141,429.674C516.997,438.076 522.821,450.457 522.821,463.652C522.821,488.297 502.813,508.305 478.169,508.305C453.524,508.305 433.516,488.297 433.516,463.652C433.516,450.398 439.393,437.965 449.33,429.561L449.333,429.565C450.402,428.657 451.787,428.109 453.298,428.109C456.683,428.109 459.431,430.857 459.431,434.242C459.431,436.21 458.502,437.963 457.059,439.086C449.967,445.179 445.779,454.123 445.779,463.652C445.779,481.529 460.292,496.042 478.169,496.042C496.045,496.042 510.558,481.529 510.558,463.652C510.558,454.085 506.337,445.107 499.192,439.012C497.802,437.888 496.913,436.168 496.913,434.242C496.913,430.857 499.661,428.109 503.046,428.109C504.618,428.109 506.053,428.702 507.139,429.676ZM484.524,414.455L484.524,465.155C484.524,468.749 481.606,471.667 478.012,471.667C474.418,471.667 471.5,468.749 471.5,465.155L471.5,414.455C471.5,410.861 474.418,407.944 478.012,407.944C481.606,407.944 484.524,410.861 484.524,414.455Z" style="fill:rgb(234,255,247);"/></g><g transform="matrix(0.515784,0.403452,-0.370571,0.473749,2177.55,1666.57)"><g><path d="M187.677,160.673C141.968,164.267 104.858,206.575 104.858,257.853C104.858,309.132 141.968,351.439 187.677,355.033C137.654,354.157 97.042,310.914 97.042,257.853C97.042,204.792 137.654,161.549 187.677,160.673Z" style="fill:rgb(229,229,219);fill-opacity:0.42;"/></g></g><g transform="matrix(0.00253279,0.654828,-0.601461,0.00232637,2333.41,1740.95)"><g><path d="M187.677,160.673C141.968,164.267 104.858,206.575 104.858,257.853C104.858,309.132 141.968,351.439 187.677,355.033C137.654,354.157 97.042,310.914 97.042,257.853C97.042,204.792 137.654,161.549 187.677,160.673Z" style="fill:rgb(229,229,219);fill-opacity:0.42;"/></g></g><g transform="matrix(0.652803,-0.0515231,0.0473241,0.599601,2044.08,1719.51)"><g><path d="M187.677,160.673C141.968,164.267 104.858,206.575 104.858,257.853C104.858,309.132 141.968,351.439 187.677,355.033C137.654,354.157 97.042,310.914 97.042,257.853C97.042,204.792 137.654,161.549 187.677,160.673Z" style="fill:rgb(229,229,219);fill-opacity:0.42;"/></g></g><g transform="matrix(-0.526533,-0.364033,0.342049,-0.494736,2192.13,2062)"><g><path d="M187.677,160.673C141.799,164.16 104.551,206.505 104.551,257.853C104.551,309.202 141.799,351.546 187.677,355.033C137.654,354.157 97.042,310.914 97.042,257.853C97.042,204.792 137.654,161.549 187.677,160.673Z" style="fill:rgb(30,42,50);fill-opacity:0.79;"/></g></g></g></g><g id="button-power-on" transform="matrix(0.95626,1.04129e-16,0,0.95626,1945.7,1605.92)"><path d="M203.769,175.207C260.766,175.207 307.04,221.481 307.04,278.477C307.04,335.474 260.766,381.748 203.769,381.748C146.773,381.748 100.499,335.474 100.499,278.477C100.499,221.481 146.773,175.207 203.769,175.207ZM203.769,201.024C246.517,201.024 281.222,235.73 281.222,278.477C281.222,321.225 246.517,355.93 203.769,355.93C161.022,355.93 126.316,321.225 126.316,278.477C126.316,235.73 161.022,201.024 203.769,201.024Z" style="fill:rgb(58,255,179);"/></g><g transform="matrix(-1.09281,0.0106917,-0.0100383,-1.02603,2348.12,2134.95)"><g><path d="M187.677,160.673C140.413,163.287 102.041,205.932 102.041,257.853C102.041,309.774 140.413,352.419 187.677,355.033C137.654,354.157 97.042,310.914 97.042,257.853C97.042,204.792 137.654,161.549 187.677,160.673Z" style="fill:rgb(229,229,219);fill-opacity:0.64;"/></g></g><g transform="matrix(-0.49283,-0.975436,0.915826,-0.462712,1996.78,2174.77)"><g><path d="M187.677,160.673C140.413,163.287 102.041,205.932 102.041,257.853C102.041,309.774 140.413,352.419 187.677,355.033C137.654,354.157 97.042,310.914 97.042,257.853C97.042,204.792 137.654,161.549 187.677,160.673Z" style="fill:rgb(229,229,219);fill-opacity:0.64;"/></g></g><g transform="matrix(0.974506,0.494667,-0.464437,0.914952,2077.3,1543.63)"><g><path d="M187.677,160.673C140.413,163.287 102.041,205.932 102.041,257.853C102.041,309.774 140.413,352.419 187.677,355.033C137.654,354.157 97.042,310.914 97.042,257.853C97.042,204.792 137.654,161.549 187.677,160.673Z" style="fill-opacity:0.45;"/></g></g></g></g><g transform="matrix(1,0,0,1,-317.946,-7.68683)"><g id="edge-connector"><g><g transform="matrix(1.03689,0,0,1.20344,251.915,-327.333)"><path d="M796.928,1909.6L796.91,1909.6L796.91,1872.49C796.91,1868.31 797.019,1863.78 798.731,1860.29C802.833,1851.91 813.627,1849.58 823.298,1849.58L1751.72,1849.19C1751.72,1849.19 1768.71,1851.14 1779.54,1857.25C1787.11,1861.52 1789.7,1869.79 1789.7,1872.49L1789.7,1909.6L1789.7,1909.6L1789.7,1933.25L796.928,1933.25L796.928,1909.6Z"/></g><g transform="matrix(0.73145,0,0,0.726193,564.127,550.223)"><path d="M2047.11,1862.1L2047.11,1890.25C2047.17,1890.85 2047.23,1891.44 2047.29,1892.04L2047.29,1906.56C2045,1932.36 2030.63,1954.71 2009.88,1967.9L2009.88,1862.1L2047.11,1862.1ZM2003.54,1862.1L2003.54,1970.83C1999.1,1973.2 1994.42,1975.18 1989.55,1976.73L1989.55,1975.66C1989.55,1968.3 1983.61,1962.32 1976.31,1962.32L1911.75,1962.32C1904.45,1962.32 1898.51,1968.3 1898.51,1975.66L1898.51,1980.73L1884.55,1980.73L1884.55,1948.83L1884.52,1948.82L1884.52,1862.1L2003.54,1862.1ZM1878.95,1862.1L1878.95,1980.81L1854.34,1980.81L1854.34,1862.1L1878.95,1862.1ZM1846.55,1862.1L1846.55,1980.81L1821.94,1980.81L1821.94,1862.1L1846.55,1862.1ZM1814.36,1862.1L1814.36,1980.81L1789.75,1980.81L1789.75,1862.1L1814.36,1862.1ZM1783.11,1862.1L1783.11,1980.81L1758.5,1980.81L1758.5,1862.1L1783.11,1862.1ZM1752.32,1862.1L1752.32,1980.84L1738.33,1980.84L1738.33,1975.66C1738.33,1968.3 1732.39,1962.32 1725.09,1962.32L1660.53,1962.32C1653.23,1962.32 1647.29,1968.3 1647.29,1975.66L1647.29,1980.84L1633.3,1980.84L1633.3,1862.1L1752.32,1862.1ZM1626.22,1862.1L1626.22,1980.81L1601.61,1980.81L1601.61,1862.1L1626.22,1862.1ZM1594.4,1862.1L1594.4,1980.81L1569.79,1980.81L1569.79,1862.1L1594.4,1862.1ZM1562.58,1862.1L1562.58,1980.81L1537.98,1980.81L1537.98,1862.1L1562.58,1862.1ZM1530.77,1862.1L1530.77,1980.81L1506.16,1980.81L1506.16,1862.1L1530.77,1862.1ZM1498.88,1862.1L1498.88,1980.81L1474.27,1980.81L1474.27,1862.1L1498.88,1862.1ZM1468.36,1862.1L1468.36,1980.84L1454.37,1980.84L1454.37,1975.66C1454.37,1968.3 1448.43,1962.32 1441.13,1962.32L1376.57,1962.32C1369.27,1962.32 1363.33,1968.3 1363.33,1975.66L1363.33,1980.84L1349.34,1980.84L1349.34,1862.1L1468.36,1862.1ZM1342.4,1862.1L1342.4,1980.81L1317.79,1980.81L1317.79,1862.1L1342.4,1862.1ZM1310.58,1862.1L1310.58,1980.81L1285.97,1980.81L1285.97,1862.1L1310.58,1862.1ZM1278.76,1862.1L1278.76,1980.81L1254.15,1980.81L1254.15,1862.1L1278.76,1862.1ZM1246.94,1862.1L1246.94,1980.81L1222.34,1980.81L1222.34,1862.1L1246.94,1862.1ZM1215.06,1862.1L1215.06,1980.81L1190.45,1980.81L1190.45,1862.1L1215.06,1862.1ZM1185.07,1862.1L1185.07,1980.84L1171.08,1980.84L1171.08,1975.66C1171.08,1968.3 1165.14,1962.32 1157.84,1962.32L1093.28,1962.32C1085.97,1962.32 1080.04,1968.3 1080.04,1975.66L1080.04,1980.84L1066.05,1980.84L1066.05,1862.1L1185.07,1862.1ZM1059.75,1862.1L1059.75,1980.81L1035.14,1980.81L1035.14,1862.1L1059.75,1862.1ZM1027.35,1862.1L1027.35,1980.81L1002.74,1980.81L1002.74,1862.1L1027.35,1862.1ZM995.164,1862.1L995.164,1980.81L970.555,1980.81L970.555,1862.1L995.164,1862.1ZM963.915,1862.1L963.915,1980.81L939.306,1980.81L939.306,1862.1L963.915,1862.1ZM933.087,1862.1L933.087,1948.95L933.059,1948.95L933.059,1980.87L919.098,1980.87L919.098,1975.66C919.098,1968.3 913.165,1962.32 905.858,1962.32L841.305,1962.32C833.997,1962.32 828.065,1968.3 828.065,1975.66L828.065,1976.87C823.19,1975.32 818.511,1973.34 814.075,1970.97L814.075,1862.1L933.087,1862.1ZM807.523,1862.1L807.523,1968.77C786.776,1955.47 772.408,1932.96 770.119,1906.97L770.119,1892.34C770.172,1891.74 770.231,1891.14 770.297,1890.54L770.297,1862.1L807.523,1862.1Z" style="fill:rgb(255,212,58);"/></g><g transform="matrix(1.8046,0,0,1.8046,1159.87,1257.25)"><path d="M472.7,371.6C477.5,371.6 480.2,375.1 480.2,378.8C480.2,382.5 477.5,386 472.7,386L467.4,386L467.4,371.7L472.7,371.7L472.7,371.6ZM470.8,374.4L470.8,383L472.6,383C475.3,383 476.8,380.9 476.8,378.7C476.8,376.5 475.2,374.4 472.6,374.4L470.8,374.4Z"/><path d="M461.4,380.9L461.4,371.6L464.7,371.6L464.7,385.9L461.2,385.9L456,376.7L456,385.9L452.7,385.9L452.7,371.6L456.2,371.6L461.4,380.9Z"/><path d="M444.4,378.3L451.8,378.3L451.8,380.8L450.3,380.8C449.7,384.1 447.3,386.3 443.2,386.3C438.4,386.3 435.7,382.8 435.7,378.8C435.7,374.9 438.5,371.3 443.2,371.3C447,371.3 449.6,373.6 449.8,376.3L446.3,376.3C446.1,375.2 444.9,374.1 443.2,374.1C440.5,374.1 439.1,376.4 439.1,378.8C439.1,381.3 440.5,383.5 443.5,383.5C445.5,383.5 446.7,382.3 446.9,380.8L444.4,380.8L444.4,378.3Z"/></g><g transform="matrix(1.8046,0,0,1.8046,1150.34,1257.42)"><path d="M368.5,385.9L365.4,385.9L360.3,371.6L363.8,371.6L366.9,381.7L370,371.6L373.6,371.6L368.5,385.9Z"/><path d="M352.1,381.1C352.1,382.7 353,383.6 354.3,383.6C355.5,383.6 356.2,382.7 356.2,381.7C356.2,380.5 355.6,379.7 354.1,379.7L352.8,379.7L352.8,377.1L354.1,377.1C355.6,377.1 356,376.4 356,375.3C356,374.2 355.3,373.7 354.4,373.7C353,373.7 352.6,374.5 352.6,375.8L349.3,375.8C349.3,373.4 350.8,371.2 354.4,371.2C357,371.2 359.4,372.5 359.4,375.2C359.4,376.8 358.4,378 357.3,378.4C358.6,378.9 359.6,380 359.6,381.9C359.6,384.6 357.2,386.2 354.4,386.2C350.9,386.2 348.9,384.1 348.9,381.1L352.1,381.1Z"/></g><g transform="matrix(1.8046,0,0,1.8046,1144.36,1257.25)"><path d="M248.6,378.5C250.3,377.5 251.6,376.8 251.6,375.4C251.6,374.3 250.9,373.8 250,373.8C249,373.8 248.2,374.4 248.2,375.9L244.9,375.9C244.9,373.3 246.7,371.3 250,371.3C252.6,371.3 254.9,372.6 254.9,375.6C254.9,378 252.6,379.5 251.1,380.3C249.1,381.6 248.6,382.1 248.6,383.2L254.7,383.2L254.7,385.9L244.7,385.9C244.8,381.2 246.4,379.9 248.6,378.5Z"/></g><g transform="matrix(1.8046,0,0,1.8046,1134.09,1256.71)"><path d="M136.2,374.1C139,374.1 139.6,373.3 139.6,371.6L142.5,371.6L142.5,385.9L139.1,385.9L139.1,376.4L136.1,376.4L136.1,374.1L136.2,374.1Z"/></g><g transform="matrix(1.8046,0,0,1.8046,1128.82,1257.29)"><path d="M35.7,376.4C35.7,373.6 37.8,371.3 41.2,371.3C44.5,371.3 46.7,373.7 46.7,376.4L46.7,381.1C46.7,383.9 44.5,386.2 41.2,386.2C37.9,386.2 35.7,383.8 35.7,381.1L35.7,376.4ZM43.3,376.4C43.3,375.1 42.5,374.1 41.1,374.1C39.8,374.1 39,375.2 39,376.4L39,381.1C39,382.3 39.8,383.4 41.1,383.4C42.4,383.4 43.3,382.3 43.3,381.1L43.3,376.4Z"/></g><g transform="matrix(1,0,0,1.66858,320.946,-1174.3)"><g><rect x="800.616" y="1848.58" width="945.288" height="17.17" style="fill-opacity:0.33;"/></g></g><g transform="matrix(1.09752,0,0,2.02469,231.716,-1826.82)"><path d="M759.213,1870.77L759.213,1859.85C759.213,1848.46 776.279,1839.2 797.299,1839.2L1683.39,1839.2C1704.41,1839.2 1721.48,1848.46 1721.48,1859.85L1721.48,1870.77L1709.33,1870.77L1709.33,1859.85C1709.33,1852.09 1697.71,1845.79 1683.39,1845.79L797.299,1845.79C782.984,1845.79 771.361,1852.09 771.361,1859.85L771.361,1870.77L759.213,1870.77Z" style="fill:rgb(76,90,101);"/></g><g transform="matrix(0.305901,-0.305901,0.305901,0.305901,798.778,2004.17)"><path d="M2161.12,2082.47L2180.57,2098.29C2176.94,2102.76 2174.95,2108.35 2174.95,2114.11C2174.95,2119.88 2176.94,2125.46 2180.57,2129.93L2161.12,2145.76C2153.85,2136.81 2149.88,2125.64 2149.88,2114.11C2149.88,2102.59 2153.85,2091.41 2161.12,2082.47Z"/></g><g transform="matrix(-0.305901,-0.305901,0.305901,-0.305901,1093.76,3297.58)"><path d="M2161.12,2082.47L2180.57,2098.29C2176.94,2102.76 2174.95,2108.35 2174.95,2114.11C2174.95,2119.88 2176.94,2125.46 2180.57,2129.93L2161.12,2145.76C2153.85,2136.81 2149.88,2125.64 2149.88,2114.11C2149.88,2102.59 2153.85,2091.41 2161.12,2082.47Z"/></g><g transform="matrix(1.00328,0,0,0.999249,-4.96581,-204.666)"><rect x="2105.79" y="2150.59" width="13.293" height="29.066" style="fill:rgb(76,90,101);"/></g><g transform="matrix(0.999888,0,0,0.998516,1.97795,-203.059)"><path d="M1076.44,2151.93L1076.39,2180.66L1063.11,2180.65L1063.11,2151.92L1076.44,2151.93Z" style="fill:rgb(76,90,101);"/></g></g></g></g><g id="jacdac-port" transform="matrix(1.35587,0,0,1.35587,-841.458,-705.957)"><g transform="matrix(0.370458,0,-1.61296e-31,0.837896,2145.1,1785.23)"><path d="M208.1,243.418L208.1,175.765C208.1,157.414 213.741,138.123 255.246,138.123L533.491,139.415C574.996,139.415 571.285,157.414 571.285,175.765L571.285,243.418L208.1,243.418Z"/></g><g transform="matrix(0.219389,0,-1.84756e-17,0.219389,1928.27,1669.78)"><path d="M1913.01,1048.96C1924.6,1059.86 1934.14,1072.91 1941,1087.48L1891.23,1087.48C1857.29,1087.48 1829.73,1115.03 1829.73,1148.97L1829.73,1195.17C1829.73,1196.47 1829.77,1197.76 1829.85,1199.04L1829.85,1380.46C1829.85,1403.08 1811.49,1421.45 1788.87,1421.45L1503.15,1421.45C1480.53,1421.45 1462.17,1403.08 1462.17,1380.46L1462.17,1198.22C1462.23,1197.07 1462.26,1195.91 1462.26,1194.74L1462.26,1148.54C1462.26,1114.6 1434.71,1087.04 1400.77,1087.04L1351.99,1087.04C1360.58,1068.97 1373.31,1053.25 1388.96,1041.1L1388.96,1048.96L1913.01,1048.96ZM1521.35,1215.1C1521.35,1205.99 1513.95,1198.59 1504.83,1198.59C1495.72,1198.59 1488.32,1205.99 1488.32,1215.1L1488.32,1254.58C1488.32,1263.7 1495.72,1271.1 1504.83,1271.1C1513.95,1271.1 1521.35,1263.7 1521.35,1254.58L1521.35,1215.1ZM1804.25,1215.1C1804.25,1205.99 1796.85,1198.59 1787.74,1198.59C1778.62,1198.59 1771.22,1205.99 1771.22,1215.1L1771.22,1254.58C1771.22,1263.7 1778.62,1271.1 1787.74,1271.1C1796.85,1271.1 1804.25,1263.7 1804.25,1254.58L1804.25,1215.1Z" style="fill:rgb(45,127,88);"/><clipPath id="_clip17"><path d="M1913.01,1048.96C1924.6,1059.86 1934.14,1072.91 1941,1087.48L1891.23,1087.48C1857.29,1087.48 1829.73,1115.03 1829.73,1148.97L1829.73,1195.17C1829.73,1196.47 1829.77,1197.76 1829.85,1199.04L1829.85,1380.46C1829.85,1403.08 1811.49,1421.45 1788.87,1421.45L1503.15,1421.45C1480.53,1421.45 1462.17,1403.08 1462.17,1380.46L1462.17,1198.22C1462.23,1197.07 1462.26,1195.91 1462.26,1194.74L1462.26,1148.54C1462.26,1114.6 1434.71,1087.04 1400.77,1087.04L1351.99,1087.04C1360.58,1068.97 1373.31,1053.25 1388.96,1041.1L1388.96,1048.96L1913.01,1048.96ZM1521.35,1215.1C1521.35,1205.99 1513.95,1198.59 1504.83,1198.59C1495.72,1198.59 1488.32,1205.99 1488.32,1215.1L1488.32,1254.58C1488.32,1263.7 1495.72,1271.1 1504.83,1271.1C1513.95,1271.1 1521.35,1263.7 1521.35,1254.58L1521.35,1215.1ZM1804.25,1215.1C1804.25,1205.99 1796.85,1198.59 1787.74,1198.59C1778.62,1198.59 1771.22,1205.99 1771.22,1215.1L1771.22,1254.58C1771.22,1263.7 1778.62,1271.1 1787.74,1271.1C1796.85,1271.1 1804.25,1263.7 1804.25,1254.58L1804.25,1215.1Z"/></clipPath><g clip-path="url(#_clip17)"><g transform="matrix(1.00503,-8.42139e-16,2.53795e-17,0.80137,-9.05994,222.642)"><path d="M1693.63,1139.01C1689.58,1132.37 1687.16,1124.06 1687.16,1115.05C1687.16,1093.27 1701.26,1075.58 1718.63,1075.58C1736,1075.58 1750.1,1093.27 1750.1,1115.05C1750.1,1124.24 1747.59,1132.7 1743.38,1139.41L1743.38,1159.75C1743.39,1159.96 1743.39,1160.18 1743.39,1160.4L1743.39,1416.13C1743.39,1429.12 1734.98,1439.67 1724.62,1439.67L1712.41,1439.67C1702.05,1439.67 1693.64,1429.12 1693.64,1416.13L1693.64,1163.52L1693.63,1163.52L1693.63,1139.01ZM1715.22,1136.87L1722.04,1136.87C1730.2,1134.87 1736.36,1125.85 1736.36,1115.05C1736.36,1102.78 1728.41,1092.82 1718.63,1092.82C1708.85,1092.82 1700.91,1102.78 1700.91,1115.05C1700.91,1125.85 1707.07,1134.87 1715.22,1136.87ZM1622.24,1139.64C1617.94,1132.89 1615.38,1124.34 1615.38,1115.05C1615.38,1093.27 1629.48,1075.58 1646.85,1075.58C1664.22,1075.58 1678.32,1093.27 1678.32,1115.05C1678.32,1123.96 1675.96,1132.18 1671.99,1138.78L1671.99,1160C1671.99,1160.13 1671.99,1160.27 1671.99,1160.4L1671.99,1416.13C1671.99,1429.12 1663.58,1439.67 1653.22,1439.67L1641.01,1439.67C1630.65,1439.67 1622.24,1429.12 1622.24,1416.13L1622.24,1163.52L1622.24,1163.52L1622.24,1139.64ZM1643.44,1136.87L1650.26,1136.87C1658.41,1134.87 1664.57,1125.85 1664.57,1115.05C1664.57,1102.78 1656.63,1092.82 1646.85,1092.82C1637.07,1092.82 1629.12,1102.78 1629.12,1115.05C1629.12,1125.85 1635.28,1134.87 1643.44,1136.87ZM1550.86,1140C1546.42,1133.2 1543.77,1124.51 1543.77,1115.05C1543.77,1093.27 1557.87,1075.58 1575.23,1075.58C1592.6,1075.58 1606.7,1093.27 1606.7,1115.05C1606.7,1123.85 1604.4,1131.99 1600.51,1138.56L1600.61,1138.56L1600.61,1163.52L1600.59,1163.52L1600.59,1380.66C1600.59,1393.65 1592.18,1404.2 1581.82,1404.2L1569.61,1404.2C1559.25,1404.2 1550.84,1393.65 1550.84,1380.66L1550.84,1160.4C1550.84,1160.07 1550.85,1159.74 1550.86,1159.42L1550.86,1140ZM1571.82,1136.87L1578.65,1136.87C1586.8,1134.87 1592.96,1125.85 1592.96,1115.05C1592.96,1102.78 1585.02,1092.82 1575.23,1092.82C1565.45,1092.82 1557.51,1102.78 1557.51,1115.05C1557.51,1125.85 1563.67,1134.87 1571.82,1136.87Z" style="fill:rgb(255,212,58);"/></g><g transform="matrix(4.55812,0,3.83857e-16,4.55812,-8789.28,-7612.42)"><g transform="matrix(3.52994,-2.92027e-30,1.52097e-31,3.52994,-6661.04,-5445.39)"><circle cx="2531.11" cy="2085.12" r="1.11"/></g><g transform="matrix(3.52994,-2.92027e-30,1.52097e-31,3.52994,-6645.26,-5445.39)"><circle cx="2531.11" cy="2085.12" r="1.11"/></g><g transform="matrix(3.52994,-2.92027e-30,1.52097e-31,3.52994,-6629.41,-5445.39)"><circle cx="2531.11" cy="2085.12" r="1.11"/></g></g></g></g><g transform="matrix(1.05759,0,0,1.18222,-466.564,-596.216)"><path d="M2661.36,2113.14L2674.57,2134.19L2535.61,2134.19L2549.55,2113.03L2661.36,2113.14Z" style="fill-opacity:0.33;"/></g><g transform="matrix(0.950286,0,0,0.997769,342.559,-182.244)"><path d="M1967.09,2168.72L1967.09,2107.32C1967.09,2090.5 1981.43,2076.84 1999.09,2076.84L2098.3,2076.84C2115.96,2076.84 2130.3,2090.5 2130.3,2107.32L2130.3,2168.72L2117.59,2168.72L2117.59,2107.32C2117.59,2097.18 2108.94,2088.95 2098.3,2088.95L1999.09,2088.95C1988.45,2088.95 1979.81,2097.18 1979.81,2107.32L1979.81,2168.72L1967.09,2168.72Z" style="fill:rgb(76,90,101);"/></g><g transform="matrix(-0.225613,-0.225613,0.225613,-0.225613,2235.43,2947.53)"><path d="M2161.12,2082.47L2180.57,2098.29C2176.94,2102.76 2174.95,2108.35 2174.95,2114.11C2174.95,2119.88 2176.94,2125.46 2180.57,2129.93L2161.12,2145.76C2153.85,2136.81 2149.88,2125.64 2149.88,2114.11C2149.88,2102.59 2153.85,2091.41 2161.12,2082.47Z"/></g><g transform="matrix(0.225613,-0.225613,0.225613,0.225613,1389.53,1993.15)"><path d="M2161.12,2082.47L2180.57,2098.29C2176.94,2102.76 2174.95,2108.35 2174.95,2114.11C2174.95,2119.88 2176.94,2125.46 2180.57,2129.93L2161.12,2145.76C2153.85,2136.81 2149.88,2125.64 2149.88,2114.11C2149.88,2102.59 2153.85,2091.41 2161.12,2082.47Z"/></g></g><g transform="matrix(0.425926,0,0,0.425926,2160.05,1803.94)"><path d="M179.582,78L168.156,78L168.156,69.875L167.953,69.875C164.365,76.104 159.1,79.219 152.16,79.219C147.048,79.219 143.036,77.831 140.125,75.055C137.247,72.279 135.809,68.606 135.809,64.035C135.809,54.217 141.462,48.496 152.77,46.871L168.207,44.688C168.207,37.273 164.686,33.566 157.645,33.566C151.449,33.566 145.863,35.699 140.887,39.965L140.887,29.656C146.371,26.406 152.702,24.781 159.879,24.781C173.014,24.781 179.582,31.247 179.582,44.18L179.582,78ZM168.207,52.457L157.289,53.981C153.904,54.421 151.348,55.25 149.621,56.469C147.928,57.654 147.082,59.753 147.082,62.766C147.082,64.966 147.861,66.777 149.418,68.199C151.009,69.587 153.125,70.281 155.766,70.281C159.354,70.281 162.316,69.029 164.652,66.523C167.022,63.984 168.207,60.802 168.207,56.977L168.207,52.457ZM231.227,75.613C227.062,78.017 222.137,79.219 216.449,79.219C208.73,79.219 202.501,76.815 197.762,72.008C193.022,67.167 190.652,60.904 190.652,53.219C190.652,44.654 193.191,37.781 198.27,32.602C203.382,27.388 210.203,24.781 218.734,24.781C223.474,24.781 227.655,25.611 231.277,27.27L231.277,38.238C227.655,35.53 223.796,34.176 219.699,34.176C214.723,34.176 210.643,35.869 207.461,39.254C204.279,42.606 202.688,47.006 202.688,52.457C202.688,57.84 204.177,62.089 207.156,65.203C210.169,68.318 214.198,69.875 219.242,69.875C223.474,69.875 227.469,68.369 231.227,65.356L231.227,75.613ZM290.234,78L278.453,78L278.453,69.164L278.25,69.164C274.458,75.867 268.618,79.219 260.73,79.219C254.332,79.219 249.203,76.9 245.344,72.262C241.518,67.59 239.605,61.242 239.605,53.219C239.605,44.62 241.721,37.731 245.953,32.551C250.219,27.371 255.889,24.781 262.965,24.781C269.973,24.781 275.068,27.591 278.25,33.211L278.453,33.211L278.453,1.016L290.234,1.016L290.234,78ZM278.605,54.234L278.605,47.43C278.605,43.74 277.404,40.608 275,38.035C272.596,35.462 269.533,34.176 265.809,34.176C261.408,34.176 257.938,35.818 255.398,39.102C252.893,42.385 251.641,46.939 251.641,52.762C251.641,58.043 252.842,62.224 255.246,65.305C257.684,68.352 260.951,69.875 265.047,69.875C269.076,69.875 272.342,68.402 274.848,65.457C277.353,62.478 278.605,58.737 278.605,54.234ZM345.535,78L334.109,78L334.109,69.875L333.906,69.875C330.318,76.104 325.053,79.219 318.113,79.219C313.001,79.219 308.99,77.831 306.078,75.055C303.201,72.279 301.762,68.606 301.762,64.035C301.762,54.217 307.415,48.496 318.723,46.871L334.16,44.688C334.16,37.273 330.639,33.566 323.598,33.566C317.402,33.566 311.816,35.699 306.84,39.965L306.84,29.656C312.324,26.406 318.655,24.781 325.832,24.781C338.967,24.781 345.535,31.247 345.535,44.18L345.535,78ZM334.16,52.457L323.242,53.981C319.857,54.421 317.301,55.25 315.574,56.469C313.882,57.654 313.035,59.753 313.035,62.766C313.035,64.966 313.814,66.777 315.371,68.199C316.962,69.587 319.078,70.281 321.719,70.281C325.307,70.281 328.27,69.029 330.605,66.523C332.975,63.984 334.16,60.802 334.16,56.977L334.16,52.457ZM397.18,75.613C393.016,78.017 388.09,79.219 382.402,79.219C374.684,79.219 368.454,76.815 363.715,72.008C358.975,67.167 356.605,60.904 356.605,53.219C356.605,44.654 359.145,37.781 364.223,32.602C369.335,27.388 376.156,24.781 384.688,24.781C389.427,24.781 393.608,25.611 397.23,27.27L397.23,38.238C393.608,35.53 389.749,34.176 385.652,34.176C380.676,34.176 376.596,35.869 373.414,39.254C370.232,42.606 368.641,47.006 368.641,52.457C368.641,57.84 370.13,62.089 373.109,65.203C376.122,68.318 380.151,69.875 385.195,69.875C389.427,69.875 393.422,68.369 397.18,65.356L397.18,75.613ZM124.191,68.852C124.191,81.469 121.52,91.29 116.176,98.316C110.832,105.293 103.682,108.781 94.727,108.781C90.57,108.781 87.156,108.188 84.484,107L84.484,94.68C87.156,96.609 90.62,97.574 94.875,97.574C106.107,97.574 111.723,88.049 111.723,69L111.723,0.57L124.191,0.57L124.191,68.852Z" style="fill:rgb(236,246,255);"/></g></svg>